<svg width="43.7" height="78.702" viewBox="0 0 43.7 78.702" xmlns="http://www.w3.org/2000/svg"><g id="svgGroup" stroke-linecap="round" fill-rule="evenodd" font-size="9pt" stroke="#000" stroke-width="0.25mm" fill="#000" style="stroke:#000;stroke-width:0.25mm;fill:#000"><path d="M 42.5 55.2 L 43.7 56.5 A 32.497 32.497 0 0 1 42.042 60.014 Q 39.998 63.706 37.496 65.371 A 9.015 9.015 0 0 1 37.05 65.65 A 17.462 17.462 0 0 1 33.452 67.265 A 13.527 13.527 0 0 1 29.4 67.9 Q 28.6 67.9 27.8 67.8 L 26.2 67.6 Q 23.5 72.2 19.55 75.45 Q 15.6 78.7 10.3 78.7 A 12.591 12.591 0 0 1 7.241 78.351 A 8.137 8.137 0 0 1 2.55 75.3 Q 0 71.9 0 66.1 Q 0 61.1 1.7 54.3 A 121.801 121.801 0 0 1 4.255 45.546 A 147.366 147.366 0 0 1 6.2 40.05 Q 9 32.6 12.45 25.5 Q 15.9 18.4 19.4 12.65 Q 22.011 8.36 24.4 5.351 A 40.699 40.699 0 0 1 26 3.45 A 22.699 22.699 0 0 1 27.304 2.106 Q 29.538 0 31.1 0 A 2.228 2.228 0 0 1 32.988 0.993 Q 33.316 1.444 33.55 2.1 A 12.547 12.547 0 0 1 34.288 5.775 A 11.77 11.77 0 0 1 34.3 6.3 Q 34.3 8.335 33.667 11.002 A 37.323 37.323 0 0 1 33.1 13.1 A 50.915 50.915 0 0 1 31.543 17.505 A 67.809 67.809 0 0 1 29.7 21.65 Q 27.5 26.2 24.6 30.6 A 64.324 64.324 0 0 1 18.974 37.959 A 58.951 58.951 0 0 1 18.35 38.65 A 36.304 36.304 0 0 1 14.989 41.89 A 27.059 27.059 0 0 1 11.5 44.4 A 8.786 8.786 0 0 0 11.189 45.045 Q 10.63 46.309 9.75 48.95 A 62.139 62.139 0 0 0 8.683 52.527 Q 8.174 54.429 7.711 56.564 A 101.404 101.404 0 0 0 7.65 56.85 A 42.486 42.486 0 0 0 6.745 63.651 A 37.907 37.907 0 0 0 6.7 65.5 A 22.2 22.2 0 0 0 6.861 68.26 Q 7.04 69.684 7.417 70.878 A 10.885 10.885 0 0 0 7.95 72.25 Q 9.035 74.551 11.44 74.854 A 6.076 6.076 0 0 0 12.2 74.9 Q 15.1 74.9 18.2 72.55 Q 21.3 70.2 23.2 66.5 Q 19.5 64.6 17.7 60.95 A 17.493 17.493 0 0 1 16.164 56.426 A 15.324 15.324 0 0 1 15.9 53.6 A 14.962 14.962 0 0 1 16.237 50.331 Q 16.818 47.735 18.4 45.9 A 9.156 9.156 0 0 1 20.446 44.105 A 7.095 7.095 0 0 1 24.3 43 A 5.734 5.734 0 0 1 26.645 43.466 Q 27.865 44.006 28.766 45.171 A 6.992 6.992 0 0 1 28.9 45.35 Q 30.137 47.06 30.474 49.907 A 19.55 19.55 0 0 1 30.6 52.2 A 26.442 26.442 0 0 1 30.051 57.479 A 30.625 30.625 0 0 1 29.7 59 Q 28.8 62.5 27.1 65.8 Q 27.7 65.9 28.35 66 A 8.804 8.804 0 0 0 29.591 66.1 A 9.718 9.718 0 0 0 29.7 66.1 A 12.232 12.232 0 0 0 32.427 65.811 A 8.819 8.819 0 0 0 35.7 64.35 Q 38.1 62.6 39.75 60.05 Q 41.4 57.5 42.5 55.2 Z M 12.6 40.5 A 28.296 28.296 0 0 0 15.533 37.824 A 37.783 37.783 0 0 0 18.05 34.9 Q 20.7 31.5 23 27.65 A 103.637 103.637 0 0 0 26.169 21.96 A 91.068 91.068 0 0 0 27.1 20.1 A 69.821 69.821 0 0 0 28.522 16.997 Q 29.338 15.088 29.9 13.4 Q 30.9 10.4 30.9 8.9 A 3.935 3.935 0 0 0 30.895 8.698 Q 30.88 8.407 30.818 8.281 A 0.282 0.282 0 0 0 30.8 8.25 A 0.323 0.323 0 0 0 30.566 8.105 A 0.471 0.471 0 0 0 30.5 8.1 Q 29.721 8.1 27.569 10.801 A 40.555 40.555 0 0 0 27.45 10.95 A 43.425 43.425 0 0 0 25.768 13.244 Q 24.893 14.517 23.952 16.037 A 99.963 99.963 0 0 0 22.45 18.55 Q 19.7 23.3 17 29.05 A 83.276 83.276 0 0 0 13.041 39.074 A 75.761 75.761 0 0 0 12.6 40.5 Z M 24.2 64.5 Q 25.3 62.2 25.9 59.65 Q 26.5 57.1 26.5 54.4 Q 26.5 52.141 26.104 50.507 A 8.291 8.291 0 0 0 25.55 48.9 A 5.978 5.978 0 0 0 25.08 48.073 Q 24.272 46.9 23.2 46.9 Q 21.7 46.9 20.55 48.95 Q 19.4 51 19.4 54.1 A 14.95 14.95 0 0 0 19.788 57.412 A 19.44 19.44 0 0 0 20.5 59.8 Q 21.6 62.8 24.2 64.5 Z" vector-effect="non-scaling-stroke"/></g></svg>