<svg width="50.2" height="75.201" viewBox="0 0 50.2 75.201" xmlns="http://www.w3.org/2000/svg"><g id="svgGroup" stroke-linecap="round" fill-rule="evenodd" font-size="9pt" stroke="#000" stroke-width="0.25mm" fill="#000" style="stroke:#000;stroke-width:0.25mm;fill:#000"><path d="M 48.9 55.201 L 50.2 56.401 A 42.583 42.583 0 0 1 46.193 63.736 A 38.605 38.605 0 0 1 45.1 65.251 A 28.838 28.838 0 0 1 41.743 68.982 A 23.002 23.002 0 0 1 38.5 71.501 A 14.763 14.763 0 0 1 34.355 73.36 A 12.951 12.951 0 0 1 31 73.801 A 10.271 10.271 0 0 1 29.036 73.625 Q 27.89 73.401 27.004 72.893 A 5.225 5.225 0 0 1 25.85 72.001 Q 24.1 70.201 24.1 67.501 A 13.124 13.124 0 0 1 24.276 65.422 Q 24.438 64.414 24.749 63.314 A 23.043 23.043 0 0 1 24.9 62.801 Q 25.7 60.201 26.45 57.501 A 21.219 21.219 0 0 0 27.051 54.598 A 16.807 16.807 0 0 0 27.2 52.401 A 9.726 9.726 0 0 0 27.122 51.125 Q 26.908 49.508 26.1 48.701 A 3.664 3.664 0 0 0 23.45 47.601 A 4.623 4.623 0 0 0 23.4 47.601 A 5.953 5.953 0 0 0 19.668 48.921 A 8.18 8.18 0 0 0 18.9 49.601 Q 16.9 51.601 15.25 54.751 Q 13.6 57.901 12.15 61.401 Q 10.7 64.901 9.4 68.051 A 44.193 44.193 0 0 1 8.425 70.251 Q 7.92 71.307 7.416 72.189 A 20.912 20.912 0 0 1 6.8 73.201 Q 5.5 75.201 4.1 75.201 A 2.236 2.236 0 0 1 2.495 74.498 Q 1.794 73.808 1.262 72.442 A 11.663 11.663 0 0 1 1.1 72.001 Q 0.443 70.09 0.179 67.895 A 25.855 25.855 0 0 1 0 64.801 Q 0 61.131 0.935 56.411 A 72.896 72.896 0 0 1 1.6 53.401 A 129.608 129.608 0 0 1 3.991 44.877 A 157.921 157.921 0 0 1 5.8 39.501 Q 8.4 32.201 11.65 25.201 Q 14.9 18.201 18.3 12.501 A 87.584 87.584 0 0 1 20.743 8.625 Q 21.965 6.8 23.131 5.301 A 39.72 39.72 0 0 1 24.7 3.401 A 19.478 19.478 0 0 1 26.062 1.994 Q 28.216 0.001 29.9 0.001 Q 31.595 0.001 32.359 1.906 A 5.718 5.718 0 0 1 32.45 2.151 Q 33.2 4.301 33.2 6.301 A 15.955 15.955 0 0 1 33.024 8.569 Q 32.859 9.712 32.54 11.003 A 36.141 36.141 0 0 1 31.95 13.101 A 55.096 55.096 0 0 1 30.354 17.506 A 72.98 72.98 0 0 1 28.5 21.651 Q 26.3 26.201 23.4 30.601 A 61.285 61.285 0 0 1 17.312 38.422 A 56.847 56.847 0 0 1 17.1 38.651 A 37.76 37.76 0 0 1 13.783 41.823 A 27.853 27.853 0 0 1 10.2 44.401 Q 9 47.301 8.15 50.901 A 62.247 62.247 0 0 0 7.007 57.086 A 56.757 56.757 0 0 0 6.9 57.951 Q 6.5 61.401 6.5 64.101 A 41.325 41.325 0 0 0 6.507 64.883 Q 6.514 65.269 6.529 65.609 A 21.261 21.261 0 0 0 6.55 66.001 A 20.408 20.408 0 0 0 6.632 66.962 A 16.896 16.896 0 0 0 6.7 67.501 Q 8.1 63.401 9.75 59.551 A 67.355 67.355 0 0 1 12.137 54.54 A 57.403 57.403 0 0 1 13.3 52.451 A 40.351 40.351 0 0 1 15.517 49.048 A 32.497 32.497 0 0 1 17.35 46.751 A 19.99 19.99 0 0 1 19.634 44.517 A 15.47 15.47 0 0 1 21.9 42.951 Q 24.3 41.601 27 41.601 A 9.404 9.404 0 0 1 28.827 41.767 Q 30.38 42.075 31.45 42.951 Q 33.1 44.301 33.85 46.351 Q 34.6 48.401 34.6 50.601 Q 34.6 53.701 33.55 56.601 A 152.389 152.389 0 0 1 31.469 62.032 A 140.069 140.069 0 0 1 31.4 62.201 Q 30.3 64.901 30.3 67.401 A 7.436 7.436 0 0 0 30.367 68.439 Q 30.534 69.621 31.117 70.265 A 2.244 2.244 0 0 0 31.15 70.301 A 2.813 2.813 0 0 0 33.199 71.199 A 3.681 3.681 0 0 0 33.3 71.201 A 5.853 5.853 0 0 0 35.24 70.844 Q 36.04 70.563 36.896 70.061 A 14.947 14.947 0 0 0 38.45 69.001 A 26.056 26.056 0 0 0 41.111 66.62 Q 42.378 65.329 43.635 63.747 A 44.523 44.523 0 0 0 44.1 63.151 Q 46.9 59.501 48.9 55.201 Z M 11.5 40.501 A 28.296 28.296 0 0 0 14.433 37.824 A 37.783 37.783 0 0 0 16.95 34.901 Q 19.6 31.501 21.9 27.651 A 103.637 103.637 0 0 0 25.069 21.96 A 91.068 91.068 0 0 0 26 20.101 A 69.821 69.821 0 0 0 27.422 16.997 Q 28.238 15.088 28.8 13.401 Q 29.8 10.401 29.8 8.901 A 3.935 3.935 0 0 0 29.795 8.699 Q 29.78 8.408 29.718 8.282 A 0.282 0.282 0 0 0 29.7 8.251 A 0.323 0.323 0 0 0 29.466 8.105 A 0.471 0.471 0 0 0 29.4 8.101 A 0.775 0.775 0 0 0 29.028 8.23 Q 28.292 8.663 26.79 10.547 A 40.963 40.963 0 0 0 26.55 10.851 A 50.487 50.487 0 0 0 24.995 12.96 Q 24.216 14.071 23.368 15.381 A 118.972 118.972 0 0 0 21.6 18.201 Q 18.8 22.801 16.1 28.601 Q 13.4 34.401 11.5 40.501 Z" vector-effect="non-scaling-stroke"/></g></svg>