<svg width="40.6" height="38.401" viewBox="0 0 40.6 38.401" xmlns="http://www.w3.org/2000/svg"><g id="svgGroup" stroke-linecap="round" fill-rule="evenodd" font-size="9pt" stroke="#000" stroke-width="0.25mm" fill="#000" style="stroke:#000;stroke-width:0.25mm;fill:#000"><path d="M 39.4 19.3 L 40.6 20.3 A 16.442 16.442 0 0 1 38.827 23.496 A 11.378 11.378 0 0 1 34.95 26.95 Q 31.3 28.9 28 28.9 A 12.295 12.295 0 0 1 25.651 28.681 A 11.377 11.377 0 0 1 25.5 28.65 Q 24.3 28.4 23.2 27.9 Q 19.8 32.4 15.75 35.4 A 18.281 18.281 0 0 1 12.902 37.154 Q 11.152 38.008 9.451 38.277 A 9.929 9.929 0 0 1 7.9 38.4 Q 5.103 38.4 3.364 37.279 A 5.429 5.429 0 0 1 1.8 35.75 A 10.256 10.256 0 0 1 0.203 31.724 A 13.884 13.884 0 0 1 0 29.3 A 21.093 21.093 0 0 1 0.539 24.639 A 25.06 25.06 0 0 1 1 22.9 Q 2 19.6 3.65 16.7 A 21.34 21.34 0 0 1 5.285 14.223 A 15.684 15.684 0 0 1 7.35 12 A 8.699 8.699 0 0 1 8.765 10.975 Q 9.719 10.43 10.684 10.269 A 4.926 4.926 0 0 1 11.5 10.2 A 3.729 3.729 0 0 1 12.178 10.265 A 4.572 4.572 0 0 1 12.55 10.35 A 9.742 9.742 0 0 1 13.537 10.675 A 8.973 8.973 0 0 1 13.6 10.7 Q 12.864 11.354 11.895 12.91 A 28.267 28.267 0 0 0 11.45 13.65 A 33.287 33.287 0 0 0 10.1 16.239 A 43.267 43.267 0 0 0 9.1 18.55 A 52.685 52.685 0 0 0 7.297 23.831 A 48.638 48.638 0 0 0 7.25 24 A 25.492 25.492 0 0 0 6.808 25.838 Q 6.635 26.707 6.559 27.472 A 11.477 11.477 0 0 0 6.5 28.6 Q 6.5 31.227 7.267 32.588 A 3.449 3.449 0 0 0 7.5 32.95 Q 8.5 34.3 10.1 34.3 Q 12.017 34.3 14.599 32.426 A 19.47 19.47 0 0 0 15.1 32.05 A 29.963 29.963 0 0 0 18.153 29.307 A 40.525 40.525 0 0 0 20.8 26.3 A 14.503 14.503 0 0 1 17.245 21.928 A 17.942 17.942 0 0 1 16.45 20.25 Q 14.9 16.5 14.9 12.6 Q 14.9 9.3 16.05 6.4 A 11.86 11.86 0 0 1 17.674 3.504 A 10.183 10.183 0 0 1 19.4 1.75 A 8.031 8.031 0 0 1 23.823 0.037 A 10.336 10.336 0 0 1 24.7 0 A 11.903 11.903 0 0 1 26.581 0.138 Q 29.15 0.55 30.2 2.2 A 8.597 8.597 0 0 1 31.322 4.979 Q 31.574 6.113 31.598 7.427 A 15.237 15.237 0 0 1 31.6 7.7 A 18.954 18.954 0 0 1 31.183 11.543 Q 30.813 13.327 30.116 15.258 A 34.344 34.344 0 0 1 29.7 16.35 Q 27.8 21.1 24.9 25.5 Q 26.7 26.5 28.7 26.5 A 9.435 9.435 0 0 0 30.26 26.362 Q 30.982 26.241 31.768 26.014 A 16.91 16.91 0 0 0 32.3 25.85 A 10.905 10.905 0 0 0 34.596 24.781 A 14.477 14.477 0 0 0 36.25 23.6 A 10.529 10.529 0 0 0 38.464 21.063 A 13.687 13.687 0 0 0 39.4 19.3 Z M 22.6 23.7 Q 25.1 20 26.75 15.95 A 23.947 23.947 0 0 0 27.934 12.252 A 17.735 17.735 0 0 0 28.4 8.3 Q 28.4 5.755 27.745 4.404 A 3.65 3.65 0 0 0 27.55 4.05 A 3.631 3.631 0 0 0 27.006 3.368 A 2.242 2.242 0 0 0 25.4 2.7 Q 23.4 2.7 21.3 5.6 A 10.731 10.731 0 0 0 19.521 9.692 A 15.248 15.248 0 0 0 19.2 12.9 A 20.988 20.988 0 0 0 19.998 18.566 A 23.378 23.378 0 0 0 20.05 18.75 Q 20.9 21.7 22.6 23.7 Z" vector-effect="non-scaling-stroke"/></g></svg>