<svg width="38.1" height="43.5" viewBox="0 0 38.1 43.5" xmlns="http://www.w3.org/2000/svg"><g id="svgGroup" stroke-linecap="round" fill-rule="evenodd" font-size="9pt" stroke="#000" stroke-width="0.25mm" fill="#000" style="stroke:#000;stroke-width:0.25mm;fill:#000"><path d="M 0.9 29.9 L 0 28.2 Q 1.4 25.6 3.65 20.6 Q 5.9 15.6 8.1 9.2 A 3.27 3.27 0 0 1 7.1 6.844 A 3.89 3.89 0 0 1 7.1 6.8 A 8.649 8.649 0 0 1 7.37 4.584 A 6.425 6.425 0 0 1 8.8 1.9 A 16.95 16.95 0 0 1 9.453 1.207 Q 10.411 0.251 11.011 0.052 A 0.926 0.926 0 0 1 11.3 0 A 1.888 1.888 0 0 1 11.763 0.052 Q 12.367 0.205 12.521 0.808 A 1.55 1.55 0 0 1 12.55 0.95 Q 12.673 1.73 12.695 2.206 A 4.206 4.206 0 0 1 12.7 2.4 A 1.615 1.615 0 0 1 12.674 2.664 Q 12.596 3.124 12.285 3.985 A 23.542 23.542 0 0 1 12.15 4.35 A 35.513 35.513 0 0 0 11.963 4.853 Q 11.618 5.805 11.601 6.073 A 0.412 0.412 0 0 0 11.6 6.1 Q 11.6 7.5 13.15 8.65 Q 14.482 9.638 16.146 10.848 A 548.033 548.033 0 0 0 16.7 11.25 Q 18.7 12.7 20.25 14.75 A 7.414 7.414 0 0 1 21.554 17.633 Q 21.792 18.691 21.8 19.921 A 13.119 13.119 0 0 1 21.8 20 A 14.386 14.386 0 0 1 21.8 20.047 Q 21.79 23.024 20.55 26.1 Q 19.3 29.2 18.05 32 A 18.056 18.056 0 0 0 17.338 33.842 Q 16.8 35.522 16.8 36.9 Q 16.8 38.54 17.547 39.184 A 1.557 1.557 0 0 0 17.7 39.3 A 3.579 3.579 0 0 0 19.378 39.881 A 4.5 4.5 0 0 0 19.8 39.9 A 8.545 8.545 0 0 0 22.625 39.399 A 11.989 11.989 0 0 0 24.75 38.4 A 25.453 25.453 0 0 0 28.185 35.96 A 30.495 30.495 0 0 0 29.7 34.6 Q 32.1 32.3 34 29.75 Q 35.583 27.626 36.472 25.745 A 15.348 15.348 0 0 0 36.8 25 L 38.1 26 A 35.465 35.465 0 0 1 34.915 31.576 A 43.092 43.092 0 0 1 32.9 34.25 A 32.321 32.321 0 0 1 27.588 39.463 A 28.946 28.946 0 0 1 25.55 40.9 A 16.861 16.861 0 0 1 21.307 42.89 A 14.161 14.161 0 0 1 17.2 43.5 A 10.386 10.386 0 0 1 15.034 43.287 Q 13.621 42.986 12.551 42.258 A 6.075 6.075 0 0 1 11.85 41.7 A 5.973 5.973 0 0 1 9.92 37.578 A 8.153 8.153 0 0 1 9.9 37 A 14.471 14.471 0 0 1 10.394 33.332 A 19.162 19.162 0 0 1 11.3 30.7 Q 12.7 27.4 14.05 24.15 A 20.755 20.755 0 0 0 14.873 21.804 Q 15.4 19.925 15.4 18.3 Q 15.4 15.1 13.55 13.55 Q 11.7 12 9.8 10.7 Q 7.5 16.6 5 21.9 A 194.074 194.074 0 0 1 3.806 24.388 Q 2.5 27.058 1.49 28.871 A 44.419 44.419 0 0 1 0.9 29.9 Z" vector-effect="non-scaling-stroke"/></g></svg>