<svg width="49.2" height="39.002" viewBox="0 0 49.2 39.002" xmlns="http://www.w3.org/2000/svg"><g id="svgGroup" stroke-linecap="round" fill-rule="evenodd" font-size="9pt" stroke="#000" stroke-width="0.25mm" fill="#000" style="stroke:#000;stroke-width:0.25mm;fill:#000"><path d="M 48.2 18.1 L 49.2 19.1 A 37.287 37.287 0 0 1 45.745 25.911 A 32.548 32.548 0 0 1 43.8 28.6 Q 40.5 32.7 36.75 35 A 17.14 17.14 0 0 1 33.613 36.532 A 12.358 12.358 0 0 1 29.4 37.3 A 9.836 9.836 0 0 1 27.326 37.096 Q 26.048 36.82 25.101 36.172 A 5.25 5.25 0 0 1 23.95 35.1 A 8.161 8.161 0 0 1 22.597 32.688 A 7.247 7.247 0 0 1 22.2 30.3 A 8.603 8.603 0 0 1 22.223 29.684 Q 22.248 29.337 22.3 28.95 Q 22.4 28.2 22.5 27.4 Q 19.681 31.203 17.184 33.759 A 30.925 30.925 0 0 1 14.65 36.1 A 14.686 14.686 0 0 1 11.966 37.868 Q 9.713 39 7.4 39 Q 4.3 39 2.15 36.95 A 6.384 6.384 0 0 1 0.521 34.314 Q 0.179 33.299 0.062 32.06 A 14.414 14.414 0 0 1 0 30.7 A 18.649 18.649 0 0 1 0.452 26.72 Q 0.844 24.924 1.577 23.011 A 30.579 30.579 0 0 1 1.6 22.95 A 37.798 37.798 0 0 1 4.656 16.813 A 44.377 44.377 0 0 1 6 14.75 Q 8.8 10.7 12.35 7.35 A 33.55 33.55 0 0 1 17.42 3.382 A 29.188 29.188 0 0 1 19.85 2 A 19.076 19.076 0 0 1 24.033 0.44 A 15.733 15.733 0 0 1 27.7 0 A 12.227 12.227 0 0 1 30.746 0.362 A 9.203 9.203 0 0 1 34.2 2.05 A 6.51 6.51 0 0 1 36.769 6.773 A 8.351 8.351 0 0 1 36.8 7.5 A 7.213 7.213 0 0 1 36.71 8.683 Q 36.452 10.232 35.45 10.9 Q 34.296 11.67 32.52 11.781 A 9.891 9.891 0 0 1 31.9 11.8 A 18.324 18.324 0 0 0 32.109 10.853 A 23.066 23.066 0 0 0 32.25 10.05 Q 32.4 9.1 32.4 8.3 A 8.048 8.048 0 0 0 32.166 6.318 A 6.315 6.315 0 0 0 31.3 4.35 A 3.459 3.459 0 0 0 29.43 2.973 Q 28.597 2.7 27.5 2.7 A 8.865 8.865 0 0 0 24.229 3.352 Q 23.099 3.798 21.953 4.549 A 15.426 15.426 0 0 0 21.8 4.65 A 23.691 23.691 0 0 0 18.644 7.214 A 31.64 31.64 0 0 0 16.2 9.85 Q 13.5 13.1 11.4 16.9 A 45.316 45.316 0 0 0 8.984 21.961 A 38.5 38.5 0 0 0 8.1 24.4 A 28.274 28.274 0 0 0 7.323 27.275 Q 7.019 28.715 6.933 30.009 A 15.035 15.035 0 0 0 6.9 31 Q 6.9 34.793 9.454 34.897 A 3.589 3.589 0 0 0 9.6 34.9 Q 11.9 34.9 14.6 32.75 A 33.59 33.59 0 0 0 17.164 30.471 Q 18.441 29.221 19.749 27.717 A 56.926 56.926 0 0 0 20.15 27.25 Q 23 23.9 25.6 20.3 Q 28.2 16.7 30.2 13.7 A 9.739 9.739 0 0 1 30.329 13.512 Q 30.566 13.173 30.664 13.113 A 0.072 0.072 0 0 1 30.7 13.1 A 6.992 6.992 0 0 1 31.109 13.182 Q 31.565 13.287 32.164 13.473 A 22.651 22.651 0 0 1 32.25 13.5 A 6.466 6.466 0 0 1 33.233 13.898 A 5.186 5.186 0 0 1 33.9 14.3 A 1.808 1.808 0 0 1 34.327 14.718 A 1.48 1.48 0 0 1 34.6 15.6 A 2.51 2.51 0 0 1 34.521 16.192 Q 34.376 16.785 33.966 17.569 A 12.368 12.368 0 0 1 33.7 18.05 A 145.901 145.901 0 0 0 32.812 19.602 Q 32.284 20.538 31.7 21.6 Q 30.6 23.6 29.7 25.65 Q 28.832 27.628 28.801 29.373 A 7.254 7.254 0 0 0 28.8 29.5 A 5.859 5.859 0 0 0 29.328 31.905 A 7.159 7.159 0 0 0 29.6 32.45 A 2.722 2.722 0 0 0 30.57 33.491 Q 31.086 33.804 31.767 33.878 A 4.039 4.039 0 0 0 32.2 33.9 A 5.135 5.135 0 0 0 33.953 33.552 Q 36.206 32.728 39.3 29.95 A 31.332 31.332 0 0 0 42.545 26.517 Q 44.08 24.648 45.628 22.306 A 74.771 74.771 0 0 0 48.2 18.1 Z" vector-effect="non-scaling-stroke"/></g></svg>