<svg width="37.9" height="40.401" viewBox="0 0 37.9 40.401" xmlns="http://www.w3.org/2000/svg"><g id="svgGroup" stroke-linecap="round" fill-rule="evenodd" font-size="9pt" stroke="#000" stroke-width="0.25mm" fill="#000" style="stroke:#000;stroke-width:0.25mm;fill:#000"><path d="M 36.7 19.8 L 37.9 20.7 A 38.699 38.699 0 0 1 33.27 28.499 A 34.54 34.54 0 0 1 31.05 31.1 A 34.719 34.719 0 0 1 25.589 35.838 A 29.735 29.735 0 0 1 22.05 37.95 A 22.673 22.673 0 0 1 15.658 40.104 A 20.349 20.349 0 0 1 12.2 40.4 A 17.65 17.65 0 0 1 8.685 40.073 Q 6.64 39.657 5.076 38.712 A 9.065 9.065 0 0 1 3.05 37.05 Q 0 33.7 0 28.8 A 20.368 20.368 0 0 1 0.712 23.579 A 27.753 27.753 0 0 1 2.25 19.3 A 39.353 39.353 0 0 1 8.221 9.935 A 43.151 43.151 0 0 1 8.25 9.9 A 36.04 36.04 0 0 1 13.761 4.63 A 31.684 31.684 0 0 1 16.5 2.75 A 20.295 20.295 0 0 1 20.418 0.87 A 15.115 15.115 0 0 1 25.4 0 Q 27.7 0 29.65 1.2 A 3.578 3.578 0 0 1 31.05 2.874 Q 31.596 4.125 31.6 6.071 A 14.038 14.038 0 0 1 31.6 6.1 A 12.531 12.531 0 0 1 29.522 12.988 A 15.179 15.179 0 0 1 29.35 13.25 Q 27.1 16.6 23.45 19.2 Q 19.8 21.8 15.45 23.45 A 33.683 33.683 0 0 1 8.549 25.286 A 30.478 30.478 0 0 1 6.8 25.5 A 23.767 23.767 0 0 0 6.589 26.711 A 19.875 19.875 0 0 0 6.5 27.4 A 16.544 16.544 0 0 0 6.414 28.486 A 13.732 13.732 0 0 0 6.4 29.1 Q 6.4 30.6 6.75 32.1 Q 7.1 33.6 8 34.85 A 5.787 5.787 0 0 0 9.892 36.518 A 7.101 7.101 0 0 0 10.45 36.8 A 7.298 7.298 0 0 0 12.009 37.291 Q 12.752 37.441 13.61 37.484 A 14.017 14.017 0 0 0 14.3 37.5 Q 18.6 37.5 22.8 35.05 Q 27 32.6 30.6 28.6 Q 34.2 24.6 36.7 19.8 Z M 12.415 21.446 A 63.326 63.326 0 0 0 13.4 20.95 Q 16.8 19.2 19.95 16.8 A 25.888 25.888 0 0 0 23.573 13.477 A 22.105 22.105 0 0 0 25.15 11.5 A 11.479 11.479 0 0 0 26.703 8.477 A 9.744 9.744 0 0 0 27.2 5.4 A 4.876 4.876 0 0 0 27.161 4.761 Q 27.075 4.113 26.8 3.7 A 1.112 1.112 0 0 0 26.338 3.317 Q 25.954 3.134 25.339 3.106 A 5.098 5.098 0 0 0 25.1 3.1 A 7.193 7.193 0 0 0 22.705 3.534 Q 21.761 3.866 20.777 4.452 A 14.496 14.496 0 0 0 20 4.95 A 23.1 23.1 0 0 0 17.026 7.395 A 30.237 30.237 0 0 0 14.8 9.8 Q 12.3 12.8 10.3 16.4 A 34.613 34.613 0 0 0 8.023 21.35 A 30.043 30.043 0 0 0 7.3 23.6 Q 9.603 22.832 12.415 21.446 Z" vector-effect="non-scaling-stroke"/></g></svg>