<svg width="54.1" height="80.4" viewBox="0 0 54.1 80.4" xmlns="http://www.w3.org/2000/svg"><g id="svgGroup" stroke-linecap="round" fill-rule="evenodd" font-size="9pt" stroke="#000" stroke-width="0.25mm" fill="#000" style="stroke:#000;stroke-width:0.25mm;fill:#000"><path d="M 7.904 80.066 A 13.256 13.256 0 0 0 10.8 80.4 Q 13.8 80.4 16.55 79.2 A 10.676 10.676 0 0 0 17.731 78.592 Q 18.853 77.926 19.959 76.929 A 20.952 20.952 0 0 0 21.95 74.85 A 23.672 23.672 0 0 0 23.794 72.303 Q 24.685 70.901 25.57 69.172 A 59.891 59.891 0 0 0 27.2 65.7 Q 29.6 60.4 31.7 53.6 Q 33.8 46.8 35.6 39.7 A 347.357 347.357 0 0 0 36.88 34.488 A 286.246 286.246 0 0 0 38.7 26.3 A 334.972 334.972 0 0 0 39.454 22.543 Q 40.219 18.609 40.7 15.55 Q 41.247 12.073 41.367 10.52 A 9.701 9.701 0 0 0 41.4 9.8 A 5.242 5.242 0 0 0 41.382 9.37 Q 41.342 8.885 41.214 8.348 A 9.986 9.986 0 0 0 40.9 7.3 Q 40.4 5.9 39.3 5.1 Q 40.9 5.1 42.65 5.05 Q 44.4 5 46.4 5 A 10.342 10.342 0 0 0 46.417 5 Q 47.512 4.998 49.025 4.764 A 34.391 34.391 0 0 0 50.5 4.5 Q 53 4 54.1 2.1 Q 52.3 1.7 48.85 1.25 Q 45.4 0.8 41.3 0.4 Q 37.2 0 33.2 0 Q 25.1 0 21.25 1.85 A 10.118 10.118 0 0 0 19.259 3.085 A 6.195 6.195 0 0 0 16.9 7.1 Q 20.1 6.3 22.8 5.9 Q 25.5 5.5 28.85 5.3 A 94.809 94.809 0 0 1 31.095 5.195 Q 33.731 5.1 37.1 5.1 A 139.08 139.08 0 0 1 37.029 5.503 Q 36.335 9.399 35.1 15.1 Q 33.8 21.1 32.2 28.15 Q 30.6 35.2 28.85 42.35 Q 27.1 49.5 25.35 55.75 A 215.003 215.003 0 0 1 24.538 58.578 Q 23.225 63.031 22 66.4 A 59.672 59.672 0 0 1 21.133 68.666 Q 19.393 72.936 17.75 74.7 A 8.357 8.357 0 0 1 16.827 75.557 A 5.868 5.868 0 0 1 13.1 76.9 A 7.241 7.241 0 0 1 12.588 76.882 Q 11.253 76.788 10.221 76.189 A 5.348 5.348 0 0 1 8.4 74.4 A 8.603 8.603 0 0 1 7.489 72.445 Q 7.128 71.349 6.956 70.017 A 20.501 20.501 0 0 1 6.8 67.4 Q 6.8 64 7.7 60 Q 8.6 56 10.4 51.4 Q 8.8 50.6 7.6 50.6 Q 5.947 50.6 4.578 51.943 A 8.05 8.05 0 0 0 3.55 53.2 Q 2.566 54.663 1.85 56.521 A 23.76 23.76 0 0 0 0.9 59.65 Q 0 63.5 0 67.4 Q 0 71.075 0.732 73.544 A 9.582 9.582 0 0 0 1.7 75.8 A 10.5 10.5 0 0 0 2.969 77.501 A 7.399 7.399 0 0 0 5.95 79.5 A 17.068 17.068 0 0 0 7.904 80.066 Z" vector-effect="non-scaling-stroke"/></g></svg>