<svg width="47.1" height="75.201" viewBox="0 0 47.1 75.201" xmlns="http://www.w3.org/2000/svg"><g id="svgGroup" stroke-linecap="round" fill-rule="evenodd" font-size="9pt" stroke="#000" stroke-width="0.25mm" fill="#000" style="stroke:#000;stroke-width:0.25mm;fill:#000"><path d="M 46.1 55.1 L 47.1 56.1 Q 45.7 61 42.8 65.35 A 33.076 33.076 0 0 1 39.434 69.629 A 26.302 26.302 0 0 1 36.35 72.45 A 15.336 15.336 0 0 1 33.75 74.099 Q 31.515 75.2 29.3 75.2 Q 26.5 75.2 24.5 73.3 A 12.541 12.541 0 0 1 22.064 70.052 A 15.513 15.513 0 0 1 21.35 68.5 Q 20.2 65.6 19.65 62.55 A 39.77 39.77 0 0 1 19.294 60.196 Q 19.1 58.566 19.1 57.2 Q 20.2 57.2 22.3 56.65 Q 24.4 56.1 26.6 54.95 Q 28.8 53.8 30.35 51.95 Q 31.9 50.1 31.9 47.6 A 4.716 4.716 0 0 0 31.676 46.11 A 3.819 3.819 0 0 0 30.4 44.3 Q 28.9 43.1 26.9 43.1 A 8.836 8.836 0 0 0 22.04 44.574 A 11.463 11.463 0 0 0 21.1 45.25 A 19.788 19.788 0 0 0 18.014 48.353 A 25.549 25.549 0 0 0 16.25 50.85 Q 14.1 54.3 12.4 58.2 A 107.147 107.147 0 0 0 10.514 62.805 A 86.823 86.823 0 0 0 9.5 65.6 Q 8.36 68.926 7.581 71.168 A 755.136 755.136 0 0 1 7.5 71.4 A 6.857 6.857 0 0 1 7.088 72.39 Q 6.565 73.398 5.8 73.85 A 4.601 4.601 0 0 1 4.24 74.437 A 4.315 4.315 0 0 1 3.5 74.5 A 3.213 3.213 0 0 1 2.487 74.349 Q 1.583 74.05 1.082 73.158 A 3.315 3.315 0 0 1 1.05 73.1 Q 0.3 71.7 0.15 69.55 A 63.192 63.192 0 0 1 0.002 65.673 A 69.681 69.681 0 0 1 0 65.1 A 38.862 38.862 0 0 1 0.32 60.29 Q 0.626 57.838 1.227 55.11 A 73.103 73.103 0 0 1 1.7 53.1 A 111.61 111.61 0 0 1 4.274 44.385 A 133.177 133.177 0 0 1 6.25 38.95 Q 9.1 31.6 12.5 24.7 Q 15.9 17.8 19.3 12.2 A 92.724 92.724 0 0 1 21.679 8.472 Q 22.84 6.752 23.935 5.33 A 40.92 40.92 0 0 1 25.6 3.3 Q 28.368 0.151 30.133 0.007 A 2.053 2.053 0 0 1 30.3 0 Q 31.47 0 32.255 1.326 A 5.662 5.662 0 0 1 32.55 1.9 Q 33.319 3.619 33.392 5.993 A 16.443 16.443 0 0 1 33.4 6.5 Q 33.4 9.9 31.9 14.15 A 39.161 39.161 0 0 1 29.32 19.884 A 47.444 47.444 0 0 1 27.65 22.7 Q 24.9 27 21.15 30.8 Q 17.4 34.6 13 37.3 Q 9.7 45.4 8.05 53.05 A 92.741 92.741 0 0 0 7.111 58.02 Q 6.722 60.463 6.546 62.591 A 40.246 40.246 0 0 0 6.4 65.9 Q 8 61.9 10.25 57.1 Q 12.5 52.3 15.4 47.9 Q 18.3 43.5 21.7 40.7 Q 25.1 37.9 28.8 37.9 A 8.571 8.571 0 0 1 35.018 40.419 A 10.267 10.267 0 0 1 35.1 40.5 A 8.568 8.568 0 0 1 37.699 46.685 A 10.458 10.458 0 0 1 37.7 46.8 A 10.347 10.347 0 0 1 37.361 49.505 A 8.221 8.221 0 0 1 36.05 52.25 Q 34.4 54.5 32.05 55.85 A 21.422 21.422 0 0 1 28.892 57.348 A 18.359 18.359 0 0 1 27.35 57.85 Q 25 58.5 23.5 58.5 Q 23.582 59.158 23.935 60.695 A 89.051 89.051 0 0 0 24.1 61.4 A 27.137 27.137 0 0 0 24.895 64.086 A 33.617 33.617 0 0 0 25.55 65.8 A 16.237 16.237 0 0 0 26.761 68.182 A 13.167 13.167 0 0 0 27.9 69.75 A 4.959 4.959 0 0 0 29.137 70.818 A 4.146 4.146 0 0 0 31.3 71.4 A 7.8 7.8 0 0 0 35.314 70.263 A 10.765 10.765 0 0 0 36.8 69.2 A 21.611 21.611 0 0 0 39.26 66.729 Q 40.538 65.232 41.75 63.35 A 53.189 53.189 0 0 0 44.517 58.483 A 66.128 66.128 0 0 0 46.1 55.1 Z M 14.7 33.3 Q 19.3 29.6 22.75 24.9 Q 26.2 20.2 28.1 15.85 A 36.86 36.86 0 0 0 28.931 13.791 Q 30 10.875 30 9 Q 30 8.5 29.95 8.3 A 0.328 0.328 0 0 0 29.913 8.208 Q 29.856 8.116 29.741 8.102 A 0.356 0.356 0 0 0 29.7 8.1 Q 28.726 8.1 26.378 11.418 A 43.057 43.057 0 0 0 26.25 11.6 Q 24.604 13.952 22.664 17.319 A 144.091 144.091 0 0 0 20.7 20.85 A 152.916 152.916 0 0 0 16.532 29.205 A 180.578 180.578 0 0 0 14.7 33.3 Z" vector-effect="non-scaling-stroke"/></g></svg>