<svg width="34.4" height="75" viewBox="0 0 34.4 75" xmlns="http://www.w3.org/2000/svg"><g id="svgGroup" stroke-linecap="round" fill-rule="evenodd" font-size="9pt" stroke="#000" stroke-width="0.25mm" fill="#000" style="stroke:#000;stroke-width:0.25mm;fill:#000"><path d="M 25.3 55.8 L 26.8 56.6 A 68.426 68.426 0 0 1 23.568 62.699 Q 20.964 67.034 18.1 70.05 Q 14.095 74.268 9.582 74.892 A 11.54 11.54 0 0 1 8 75 A 9.816 9.816 0 0 1 5.663 74.74 A 5.995 5.995 0 0 1 1.85 72.05 Q 0.077 69.223 0.003 65.065 A 20.503 20.503 0 0 1 0 64.7 Q 0 61.072 1.028 56.415 A 65.721 65.721 0 0 1 1.8 53.3 Q 3.6 46.7 6.55 39.4 Q 9.5 32.1 13 25.15 Q 16.5 18.2 20 12.5 A 100.995 100.995 0 0 1 22.445 8.7 Q 24.56 5.578 26.45 3.4 A 24.453 24.453 0 0 1 27.67 2.086 Q 29.769 0 31.1 0 A 1.771 1.771 0 0 1 32.398 0.564 Q 32.635 0.804 32.84 1.146 A 4.111 4.111 0 0 1 32.9 1.25 Q 33.556 2.422 33.949 4.033 A 15.61 15.61 0 0 1 34 4.25 Q 34.358 5.815 34.396 7.101 A 10.197 10.197 0 0 1 34.4 7.4 A 14.488 14.488 0 0 1 34.255 9.35 Q 33.977 11.383 33.168 14.065 A 50.358 50.358 0 0 1 33.05 14.45 A 65.881 65.881 0 0 1 31.658 18.448 Q 30.628 21.141 29.25 24.15 A 97.709 97.709 0 0 1 25.069 32.231 A 110.916 110.916 0 0 1 23.45 34.95 Q 20.1 40.4 16.15 45.4 A 58.862 58.862 0 0 1 10.772 51.36 A 49.717 49.717 0 0 1 7.8 54 A 66.011 66.011 0 0 0 6.965 58.449 A 59.276 59.276 0 0 0 6.85 59.25 A 37.76 37.76 0 0 0 6.538 62.564 A 31.905 31.905 0 0 0 6.5 64.1 A 22.133 22.133 0 0 0 6.587 66.136 Q 6.776 68.178 7.378 69.472 A 5.389 5.389 0 0 0 7.6 69.9 A 3.975 3.975 0 0 0 8.6 71.074 Q 9.54 71.8 10.9 71.8 Q 13.332 71.8 15.724 69.852 A 13.216 13.216 0 0 0 16.25 69.4 A 26.199 26.199 0 0 0 18.981 66.497 A 35.163 35.163 0 0 0 21.25 63.35 Q 23.6 59.7 25.3 55.8 Z M 8.7 50.6 A 62.647 62.647 0 0 0 13.208 45.554 A 75.912 75.912 0 0 0 15.5 42.55 Q 18.8 38 21.65 33.1 Q 24.5 28.2 26.7 23.6 Q 28.9 19 30.1 15.35 Q 31.098 12.315 31.266 10.421 A 8.177 8.177 0 0 0 31.3 9.7 A 6.299 6.299 0 0 0 31.288 9.296 Q 31.249 8.69 31.082 8.443 A 0.526 0.526 0 0 0 31.05 8.4 A 1.556 1.556 0 0 0 30.936 8.276 Q 30.808 8.153 30.694 8.116 A 0.304 0.304 0 0 0 30.6 8.1 A 0.927 0.927 0 0 0 30.164 8.239 Q 29.345 8.695 27.85 10.65 A 49.537 49.537 0 0 0 26.433 12.61 Q 25.006 14.678 23.3 17.5 Q 20.7 21.8 18 27.3 A 183.076 183.076 0 0 0 13.003 38.425 A 199.301 199.301 0 0 0 12.85 38.8 A 123.762 123.762 0 0 0 9.165 49.056 A 111.599 111.599 0 0 0 8.7 50.6 Z" vector-effect="non-scaling-stroke"/></g></svg>