<svg width="71.2" height="36.301" viewBox="0 0 71.2 36.301" xmlns="http://www.w3.org/2000/svg"><g id="svgGroup" stroke-linecap="round" fill-rule="evenodd" font-size="9pt" stroke="#000" stroke-width="0.25mm" fill="#000" style="stroke:#000;stroke-width:0.25mm;fill:#000"><path d="M 70 17 L 71.2 18.4 A 51.292 51.292 0 0 1 67.859 25.452 A 57.746 57.746 0 0 1 67.1 26.75 A 27.757 27.757 0 0 1 63.832 31.167 A 23.305 23.305 0 0 1 61.25 33.6 A 12.325 12.325 0 0 1 57.522 35.702 A 11.054 11.054 0 0 1 53.9 36.3 Q 51.438 36.3 49.916 35.237 A 4.843 4.843 0 0 1 48.8 34.15 A 8.009 8.009 0 0 1 48.775 34.117 Q 47.508 32.395 47.26 30.131 A 10.399 10.399 0 0 1 47.2 29 Q 47.2 26.5 47.95 24 Q 48.7 21.5 49.45 19.1 A 18.796 18.796 0 0 0 49.936 17.233 Q 50.133 16.26 50.183 15.385 A 10.225 10.225 0 0 0 50.2 14.8 A 6.969 6.969 0 0 0 50.136 13.822 Q 49.961 12.588 49.3 12 A 3.278 3.278 0 0 0 48.412 11.426 A 2.799 2.799 0 0 0 47.3 11.2 A 3.96 3.96 0 0 0 45.466 11.693 Q 44.133 12.388 42.687 14.061 A 20.611 20.611 0 0 0 41.85 15.1 Q 38.9 19 34.2 26.1 A 34.013 34.013 0 0 0 31.856 30.186 A 30.698 30.698 0 0 0 31.5 30.95 Q 30.4 33.4 29.4 35.4 A 8.294 8.294 0 0 1 28.773 35.374 Q 28.471 35.351 28.128 35.308 A 18.911 18.911 0 0 1 27.4 35.2 A 8.963 8.963 0 0 1 26.129 34.896 A 7.198 7.198 0 0 1 25.25 34.55 Q 24.751 34.314 24.514 34.008 A 0.97 0.97 0 0 1 24.3 33.4 A 2.248 2.248 0 0 1 24.342 33.018 Q 24.461 32.357 24.917 31.006 A 53.134 53.134 0 0 1 25.25 30.05 Q 25.903 28.228 26.698 25.981 A 1574.496 1574.496 0 0 0 27.45 23.85 Q 28.7 20.3 29.65 16.65 Q 30.356 13.939 30.537 11.807 A 16.611 16.611 0 0 0 30.6 10.4 Q 30.6 8.7 30.05 7.65 Q 29.5 6.6 28.1 6.6 A 4.74 4.74 0 0 0 26.501 6.906 Q 25.141 7.395 23.517 8.663 A 20.941 20.941 0 0 0 22.8 9.25 A 35.968 35.968 0 0 0 20.049 11.885 Q 18.704 13.307 17.324 15.024 A 65.678 65.678 0 0 0 16.4 16.2 Q 13.1 20.5 10.15 25.65 Q 7.2 30.8 5.4 35.9 A 6.894 6.894 0 0 1 4.669 35.858 Q 4.3 35.819 3.881 35.742 A 15.236 15.236 0 0 1 3.2 35.6 A 11.129 11.129 0 0 1 2.058 35.275 Q 1.492 35.079 1.013 34.833 A 6.848 6.848 0 0 1 0.95 34.8 A 4.011 4.011 0 0 1 0.586 34.585 Q 0.233 34.349 0.093 34.113 A 0.608 0.608 0 0 1 0 33.8 A 1.759 1.759 0 0 1 0.037 33.493 Q 0.185 32.709 0.929 30.593 A 90.544 90.544 0 0 1 1.05 30.25 A 202.472 202.472 0 0 0 1.88 27.869 Q 2.606 25.744 3.45 23.15 Q 4.8 19 5.85 14.7 Q 6.725 11.118 6.871 8.23 A 22.38 22.38 0 0 0 6.9 7.1 A 4.136 4.136 0 0 1 7.395 6.619 Q 7.943 6.163 8.787 5.707 A 13.096 13.096 0 0 1 8.8 5.7 A 5.691 5.691 0 0 1 11.022 5.021 A 5.515 5.515 0 0 1 11.5 5 A 4.425 4.425 0 0 1 12.256 5.06 Q 12.659 5.13 12.974 5.282 A 1.896 1.896 0 0 1 13.55 5.7 A 2.346 2.346 0 0 1 14.107 6.763 Q 14.2 7.146 14.2 7.6 Q 14.2 8.9 13.45 12.05 Q 12.7 15.2 11.6 19 Q 13.6 15.8 16.15 12.45 Q 18.7 9.1 21.5 6.3 A 35.015 35.015 0 0 1 24.489 3.622 A 27.143 27.143 0 0 1 27.15 1.75 A 13.194 13.194 0 0 1 29.441 0.617 Q 31.019 0.029 32.55 0.002 A 8.352 8.352 0 0 1 32.7 0 A 6.605 6.605 0 0 1 34.29 0.178 A 3.893 3.893 0 0 1 36.95 2.25 A 10.169 10.169 0 0 1 37.88 5.051 A 14.056 14.056 0 0 1 38.1 7.6 A 25.376 25.376 0 0 1 37.84 11.156 A 30.266 30.266 0 0 1 37.55 12.85 Q 37 15.6 36.3 17.95 Q 35.6 20.3 35 21.7 Q 37.1 17.9 39.65 14.35 A 29.451 29.451 0 0 1 42.574 10.856 A 23.38 23.38 0 0 1 45.2 8.55 Q 48.2 6.3 51.6 6.3 A 8.406 8.406 0 0 1 53.204 6.442 Q 55.142 6.82 56.05 8.2 Q 57.3 10.1 57.3 12.7 Q 57.3 15.219 56.455 18.207 A 28.45 28.45 0 0 1 56.4 18.4 A 185.185 185.185 0 0 1 54.609 24.219 A 170.215 170.215 0 0 1 54.55 24.4 A 23.545 23.545 0 0 0 53.99 26.381 Q 53.771 27.323 53.675 28.16 A 10.912 10.912 0 0 0 53.6 29.4 A 4.458 4.458 0 0 0 53.966 31.21 A 4.321 4.321 0 0 0 54.25 31.75 Q 54.826 32.68 56.225 32.787 A 4.953 4.953 0 0 0 56.6 32.8 A 6.324 6.324 0 0 0 60.004 31.779 Q 60.95 31.187 61.85 30.25 Q 64.3 27.7 66.4 24.05 A 79.884 79.884 0 0 0 68.791 19.585 A 66.193 66.193 0 0 0 70 17 Z" vector-effect="non-scaling-stroke"/></g></svg>