<svg width="39.3" height="44.6" viewBox="0 0 39.3 44.6" xmlns="http://www.w3.org/2000/svg"><g id="svgGroup" stroke-linecap="round" fill-rule="evenodd" font-size="9pt" stroke="#000" stroke-width="0.25mm" fill="#000" style="stroke:#000;stroke-width:0.25mm;fill:#000"><path d="M 16.3 8 L 16.3 6.8 Q 16.3 3.731 17.16 2.141 A 3.878 3.878 0 0 1 17.55 1.55 Q 18.33 0.583 19.168 0.219 A 2.569 2.569 0 0 1 20.2 0 A 2.55 2.55 0 0 1 20.65 0.037 Q 21.122 0.122 21.4 0.4 A 1.474 1.474 0 0 1 21.659 0.742 A 1.16 1.16 0 0 1 21.8 1.3 A 2.542 2.542 0 0 1 21.781 1.588 Q 21.725 2.075 21.5 2.9 A 7.414 7.414 0 0 0 21.317 3.809 Q 21.2 4.638 21.2 5.7 A 19.398 19.398 0 0 0 21.567 9.362 A 26.656 26.656 0 0 0 22.5 12.85 Q 23.8 16.7 25.1 20.95 Q 26.4 25.2 26.4 29.8 Q 26.4 31.1 26.25 32.35 A 17.018 17.018 0 0 1 25.957 34.069 A 14.686 14.686 0 0 1 25.8 34.7 Q 29.3 34.1 32.4 31.55 A 16.612 16.612 0 0 0 34.602 29.323 Q 35.572 28.155 36.522 26.675 A 41.041 41.041 0 0 0 38.4 23.4 L 39.3 24.4 A 21.097 21.097 0 0 1 37.443 28.431 A 15.032 15.032 0 0 1 33.6 32.75 Q 29.8 35.6 25.3 36.3 Q 23.7 40.6 20.25 42.6 A 14.954 14.954 0 0 1 13.365 44.579 A 17.956 17.956 0 0 1 12.5 44.6 A 17.447 17.447 0 0 1 9.503 44.359 Q 6.856 43.896 5.05 42.55 A 11.703 11.703 0 0 1 2.156 39.492 A 10.882 10.882 0 0 1 1.15 37.5 A 17.031 17.031 0 0 1 0.055 32.813 A 15.7 15.7 0 0 1 0 31.5 Q 0 28.5 0.8 26.9 A 7.922 7.922 0 0 1 1.508 25.732 Q 1.975 25.099 2.529 24.664 A 4.671 4.671 0 0 1 2.75 24.5 Q 3.862 23.727 4.88 23.327 A 7.542 7.542 0 0 1 4.95 23.3 Q 6 22.9 6.4 22.5 Q 9.4 19.2 11.9 15.6 Q 14.4 12 16.3 8 Z M 19.5 34.6 A 19.451 19.451 0 0 0 19.759 32.909 A 21.948 21.948 0 0 0 19.8 32.5 A 21.766 21.766 0 0 0 19.861 31.619 Q 19.885 31.131 19.895 30.581 A 40.906 40.906 0 0 0 19.9 29.9 Q 19.9 25.2 18.75 20.55 Q 17.6 15.9 16.8 11.8 Q 14.5 15.6 11.95 19.05 Q 9.898 21.826 8.008 23.858 A 36.317 36.317 0 0 1 7.1 24.8 A 16.847 16.847 0 0 0 9.463 28.459 A 22.249 22.249 0 0 0 11.75 30.8 Q 14.9 33.6 19.5 34.6 Z M 15.521 40.447 A 19.399 19.399 0 0 0 15.9 40.3 A 4.024 4.024 0 0 0 17.453 39.151 Q 18.359 38.098 18.981 36.257 A 14.585 14.585 0 0 0 19 36.2 Q 14.8 35.4 11.55 32.9 A 27.871 27.871 0 0 1 9.345 31.025 Q 8.317 30.048 7.541 29.072 A 14.125 14.125 0 0 1 6.7 27.9 Q 4.545 27.998 4.501 31.262 A 10.2 10.2 0 0 0 4.5 31.4 Q 4.5 35 6.65 38.05 A 6.832 6.832 0 0 0 11.581 41.033 A 9.065 9.065 0 0 0 12.7 41.1 Q 13.784 41.1 15.521 40.447 Z" vector-effect="non-scaling-stroke"/></g></svg>