<svg width="47" height="32.801" viewBox="0 0 47 32.801" xmlns="http://www.w3.org/2000/svg"><g id="svgGroup" stroke-linecap="round" fill-rule="evenodd" font-size="9pt" stroke="#000" stroke-width="0.25mm" fill="#000" style="stroke:#000;stroke-width:0.25mm;fill:#000"><path d="M 45.7 13.6 L 47 14.5 Q 44.9 19.9 41.5 24.05 A 33.166 33.166 0 0 1 38.056 27.687 A 24.861 24.861 0 0 1 34.3 30.5 Q 30.5 32.8 26.9 32.8 A 10.981 10.981 0 0 1 25.237 32.682 Q 23.767 32.456 22.75 31.8 Q 21.2 30.8 20.55 29.1 A 9.97 9.97 0 0 1 19.927 26.2 A 11.776 11.776 0 0 1 19.9 25.4 A 15.489 15.489 0 0 1 20.098 22.96 A 18.528 18.528 0 0 1 20.1 22.95 Q 20.3 21.7 20.6 20.4 A 53.992 53.992 0 0 1 16.965 26.186 A 49.542 49.542 0 0 1 16.7 26.55 Q 14.617 29.376 12.338 31.072 A 15.689 15.689 0 0 1 12.3 31.1 A 9.181 9.181 0 0 1 10.175 32.292 A 7.321 7.321 0 0 1 7.5 32.8 A 6.088 6.088 0 0 1 2.759 30.669 A 8.538 8.538 0 0 1 2.05 29.75 A 12.096 12.096 0 0 1 0.032 23.685 A 14.952 14.952 0 0 1 0 22.7 Q 0 19.8 0.95 16 Q 1.9 12.2 3.3 8.5 Q 4.372 5.667 5.502 3.596 A 23.548 23.548 0 0 1 6.2 2.4 A 13.352 13.352 0 0 1 6.793 1.524 Q 7.797 0.171 8.6 0.019 A 1.075 1.075 0 0 1 8.8 0 Q 9.3 0 10.5 0.55 A 6.258 6.258 0 0 1 11.899 1.42 A 5.522 5.522 0 0 1 12.5 2 A 20.833 20.833 0 0 0 11.842 3.099 Q 10.95 4.684 9.8 7.2 A 57.014 57.014 0 0 0 7.464 13.218 A 64.616 64.616 0 0 0 7 14.7 A 30.616 30.616 0 0 0 6.139 18.318 A 22.396 22.396 0 0 0 5.8 22.1 Q 5.8 22.9 6 24.55 A 7.555 7.555 0 0 0 6.521 26.565 A 6.745 6.745 0 0 0 7 27.5 A 2.702 2.702 0 0 0 7.889 28.411 Q 8.525 28.8 9.4 28.8 A 4.215 4.215 0 0 0 11.196 28.375 Q 11.828 28.079 12.471 27.578 A 10.02 10.02 0 0 0 13.3 26.85 A 24.065 24.065 0 0 0 15.06 24.924 Q 15.913 23.889 16.774 22.649 A 44.059 44.059 0 0 0 17.35 21.8 A 76.296 76.296 0 0 0 20.341 16.869 A 87.486 87.486 0 0 0 21.3 15.1 Q 23.2 11.5 24.85 8.2 L 27.6 2.7 Q 28.059 2.777 28.841 2.97 A 43.214 43.214 0 0 1 29.35 3.1 A 10.294 10.294 0 0 1 30.837 3.607 A 8.872 8.872 0 0 1 31.45 3.9 A 2.238 2.238 0 0 1 31.925 4.227 A 1.4 1.4 0 0 1 32.4 5.3 Q 32.4 5.642 31.67 7.333 A 61.521 61.521 0 0 1 31.4 7.95 A 176.946 176.946 0 0 0 30.601 9.778 Q 30.247 10.598 29.86 11.516 A 354.876 354.876 0 0 0 29.05 13.45 Q 27.7 16.7 26.7 20 A 27.531 27.531 0 0 0 26.091 22.363 Q 25.846 23.534 25.755 24.584 A 14.004 14.004 0 0 0 25.7 25.8 Q 25.7 27.157 26.126 28.116 A 3.703 3.703 0 0 0 26.45 28.7 A 2.36 2.36 0 0 0 27.732 29.625 Q 28.145 29.756 28.652 29.789 A 5.401 5.401 0 0 0 29 29.8 Q 31.1 29.8 34.1 27.9 A 21.479 21.479 0 0 0 36.744 25.903 Q 38.456 24.403 40.2 22.35 A 35.536 35.536 0 0 0 43.634 17.504 A 45.594 45.594 0 0 0 45.7 13.6 Z" vector-effect="non-scaling-stroke"/></g></svg>