<svg width="64.9" height="37.101" viewBox="0 0 64.9 37.101" xmlns="http://www.w3.org/2000/svg"><g id="svgGroup" stroke-linecap="round" fill-rule="evenodd" font-size="9pt" stroke="#000" stroke-width="0.25mm" fill="#000" style="stroke:#000;stroke-width:0.25mm;fill:#000"><path d="M 63.6 17.4 L 64.9 18.4 A 27.374 27.374 0 0 1 63.627 20.952 Q 62.176 23.491 60.55 24.747 A 7.012 7.012 0 0 1 60.05 25.1 Q 57.84 26.518 55.804 26.753 A 6.995 6.995 0 0 1 55 26.8 A 7.555 7.555 0 0 1 51.894 26.172 A 7.313 7.313 0 0 1 49.75 24.7 A 9.371 9.371 0 0 1 48.095 22.473 Q 47.514 21.409 47.075 20.084 A 20.373 20.373 0 0 1 46.6 18.4 Q 44.1 23 41 27.3 A 44.97 44.97 0 0 1 37.95 31.102 A 32.721 32.721 0 0 1 34.6 34.35 Q 32.235 36.321 29.973 36.879 A 7.377 7.377 0 0 1 28.2 37.1 A 5.164 5.164 0 0 1 26.453 36.822 Q 25.015 36.308 24.227 34.843 A 5.946 5.946 0 0 1 23.95 34.25 A 14.834 14.834 0 0 1 23.125 31.326 Q 22.866 29.891 22.813 28.25 A 26.561 26.561 0 0 1 22.8 27.4 A 46.233 46.233 0 0 1 22.863 25.039 A 59.155 59.155 0 0 1 23 23.05 Q 23.2 20.7 23.5 18.4 Q 21.3 22.8 18.75 26.9 A 39.715 39.715 0 0 1 16.471 30.201 Q 14.975 32.138 13.4 33.6 A 11.246 11.246 0 0 1 11.349 35.133 A 7.646 7.646 0 0 1 7.5 36.2 A 6.115 6.115 0 0 1 2.786 34.064 A 8.892 8.892 0 0 1 2.1 33.2 A 11.6 11.6 0 0 1 0.087 27.72 A 14.808 14.808 0 0 1 0 26.1 Q 0 23.2 0.95 19.4 Q 1.9 15.6 3.3 11.9 Q 4.372 9.067 5.502 6.997 A 23.548 23.548 0 0 1 6.2 5.8 A 13.352 13.352 0 0 1 6.793 4.924 Q 7.797 3.571 8.6 3.419 A 1.075 1.075 0 0 1 8.8 3.4 Q 9.3 3.4 10.9 3.95 Q 12.5 4.5 12.5 5.4 A 20.833 20.833 0 0 0 11.842 6.499 Q 10.95 8.085 9.8 10.6 Q 8.2 14.1 7 18.15 A 32.26 32.26 0 0 0 6.18 21.55 Q 5.859 23.317 5.809 24.914 A 18.707 18.707 0 0 0 5.8 25.5 Q 5.8 26.3 6 27.95 A 8.172 8.172 0 0 0 6.465 29.876 A 7.071 7.071 0 0 0 6.95 30.9 A 2.554 2.554 0 0 0 7.804 31.811 Q 8.289 32.115 8.929 32.182 A 3.59 3.59 0 0 0 9.3 32.2 A 4.347 4.347 0 0 0 11.18 31.74 Q 12.519 31.101 13.949 29.575 A 16.95 16.95 0 0 0 14.2 29.3 Q 16.434 26.808 18.669 23.208 A 64.881 64.881 0 0 0 19.4 22 Q 22 17.6 24.3 13.1 Q 25.086 9.075 25.63 7.17 A 21.726 21.726 0 0 1 25.65 7.1 Q 26.19 5.233 26.779 4.67 A 1.325 1.325 0 0 1 26.8 4.65 A 2.076 2.076 0 0 1 28.053 4.111 A 2.752 2.752 0 0 1 28.3 4.1 Q 29.327 4.1 30.042 4.443 A 2.672 2.672 0 0 1 30.4 4.65 A 1.789 1.789 0 0 1 31.179 5.962 A 2.692 2.692 0 0 1 31.2 6.3 A 2.073 2.073 0 0 1 31.194 6.457 Q 31.188 6.532 31.177 6.618 A 4.728 4.728 0 0 1 31.15 6.8 Q 31.1 7.1 31 7.4 A 40.436 40.436 0 0 0 30.487 9.354 Q 30.273 10.254 30.064 11.278 A 87.275 87.275 0 0 0 29.65 13.45 A 102.748 102.748 0 0 0 28.625 20.757 A 111.69 111.69 0 0 0 28.6 21 A 78.285 78.285 0 0 0 28.266 25.455 A 63.181 63.181 0 0 0 28.2 28.3 A 17.153 17.153 0 0 0 28.249 29.64 Q 28.352 30.958 28.676 31.837 A 4.793 4.793 0 0 0 28.7 31.9 Q 29.191 33.178 30.359 33.2 A 2.183 2.183 0 0 0 30.4 33.2 Q 31.746 33.2 33.495 31.71 A 13.284 13.284 0 0 0 33.9 31.35 Q 35.529 29.843 37.257 27.541 A 45.178 45.178 0 0 0 38.05 26.45 Q 40.2 23.4 42.25 19.8 A 91.473 91.473 0 0 0 45.389 13.796 A 81.935 81.935 0 0 0 45.9 12.7 Q 45.9 8.194 46.463 5.527 A 13.789 13.789 0 0 1 46.65 4.75 A 15.283 15.283 0 0 1 47.077 3.413 Q 47.705 1.735 48.55 1 Q 49.556 0.125 50.601 0.016 A 2.871 2.871 0 0 1 50.9 0 A 4.184 4.184 0 0 1 51.982 0.131 A 2.735 2.735 0 0 1 53.65 1.35 Q 54.241 2.289 54.421 3.107 A 3.222 3.222 0 0 1 54.5 3.8 A 3.616 3.616 0 0 1 54.371 4.74 A 4.556 4.556 0 0 1 54.2 5.25 A 12.039 12.039 0 0 1 53.875 5.986 Q 53.692 6.368 53.466 6.781 A 20.324 20.324 0 0 1 53.4 6.9 Q 52.803 8.019 52.206 9.612 A 39.662 39.662 0 0 0 51.8 10.75 Q 51 13.1 51 17.2 A 19.243 19.243 0 0 0 51.117 19.278 A 23.471 23.471 0 0 0 51.3 20.6 A 7.123 7.123 0 0 0 51.735 22.156 A 5.556 5.556 0 0 0 52.6 23.6 Q 53.495 24.674 55.269 24.787 A 6.768 6.768 0 0 0 55.7 24.8 A 5.593 5.593 0 0 0 58.392 24.09 A 8.016 8.016 0 0 0 59.75 23.15 A 9.145 9.145 0 0 0 60.964 21.88 Q 62.107 20.453 63.232 18.17 A 35.355 35.355 0 0 0 63.6 17.4 Z" vector-effect="non-scaling-stroke"/></g></svg>