<svg width="43.8" height="39.1" viewBox="0 0 43.8 39.1" xmlns="http://www.w3.org/2000/svg"><g id="svgGroup" stroke-linecap="round" fill-rule="evenodd" font-size="9pt" stroke="#000" stroke-width="0.25mm" fill="#000" style="stroke:#000;stroke-width:0.25mm;fill:#000"><path d="M 0.9 20.3 L 0 18.7 Q 1.4 16 2.65 13.1 A 46.831 46.831 0 0 1 4.666 8.975 A 41.607 41.607 0 0 1 5.4 7.7 A 14.168 14.168 0 0 1 7.589 4.887 A 12.41 12.41 0 0 1 9.05 3.65 A 8.03 8.03 0 0 1 12.236 2.3 A 11.171 11.171 0 0 1 14.4 2.1 A 8.717 8.717 0 0 1 16.688 2.382 A 5.903 5.903 0 0 1 20.15 4.85 A 15.142 15.142 0 0 1 21.866 8.336 A 20.8 20.8 0 0 1 22.7 11.6 A 187.743 187.743 0 0 1 26.098 8.143 Q 28.825 5.444 31.2 3.35 A 47.091 47.091 0 0 1 32.537 2.212 Q 34.56 0.559 35.661 0.141 A 1.856 1.856 0 0 1 36.3 0 A 2.483 2.483 0 0 1 36.62 0.024 Q 36.963 0.069 37.451 0.2 A 13.027 13.027 0 0 1 37.8 0.3 A 3.466 3.466 0 0 1 38.165 0.43 Q 38.527 0.585 38.682 0.781 A 0.503 0.503 0 0 1 38.8 1.1 Q 37.78 1.1 35.643 2.776 A 25.443 25.443 0 0 0 35.3 3.05 A 40.255 40.255 0 0 0 33.402 4.702 Q 32.57 5.47 31.669 6.369 A 84.727 84.727 0 0 0 29.8 8.3 A 243.006 243.006 0 0 0 25.808 12.659 A 296.432 296.432 0 0 0 23.3 15.5 Q 23.6 18.5 23.8 21.5 Q 24 24.5 24.45 26.9 A 13.745 13.745 0 0 0 24.864 28.562 Q 25.274 29.842 25.9 30.75 A 3.341 3.341 0 0 0 26.992 31.779 Q 27.637 32.147 28.461 32.193 A 4.277 4.277 0 0 0 28.7 32.2 A 5.03 5.03 0 0 0 30.412 31.881 Q 31.09 31.637 31.799 31.204 A 10.78 10.78 0 0 0 32.55 30.7 A 20.018 20.018 0 0 0 34.793 28.774 A 26.465 26.465 0 0 0 36.55 26.85 Q 38.5 24.5 40.15 21.9 A 48.83 48.83 0 0 0 41.469 19.702 Q 42.093 18.593 42.582 17.569 A 28.559 28.559 0 0 0 42.8 17.1 L 43.8 18.1 Q 42.4 22.4 39.55 26.45 A 32.11 32.11 0 0 1 35.835 30.866 A 26.884 26.884 0 0 1 33.2 33.15 A 14.929 14.929 0 0 1 30.52 34.791 Q 28.58 35.697 26.639 35.79 A 9.254 9.254 0 0 1 26.2 35.8 A 6.951 6.951 0 0 1 24.136 35.508 A 5.442 5.442 0 0 1 21.6 33.85 A 10.754 10.754 0 0 1 20.034 31.439 Q 19.503 30.34 19.126 29.025 A 18.433 18.433 0 0 1 19.05 28.75 A 54.57 54.57 0 0 1 17.9 23.4 A 61.665 61.665 0 0 1 17.7 22.1 Q 13.5 27.1 9.95 31.6 Q 7.232 35.045 5.54 37.201 A 1053.537 1053.537 0 0 0 4.6 38.4 A 2.931 2.931 0 0 1 4.267 38.734 Q 4.078 38.894 3.889 38.984 A 1.131 1.131 0 0 1 3.4 39.1 A 0.769 0.769 0 0 1 2.897 38.911 A 1.236 1.236 0 0 1 2.7 38.7 A 1.375 1.375 0 0 1 2.485 38.259 Q 2.428 38.066 2.409 37.835 A 2.921 2.921 0 0 1 2.4 37.6 A 2.354 2.354 0 0 1 2.515 36.936 Q 2.829 35.896 3.993 34.106 A 34.839 34.839 0 0 1 4.5 33.35 A 92.436 92.436 0 0 1 6.251 30.901 Q 7.856 28.725 9.95 26.1 A 171.43 171.43 0 0 1 15.284 19.744 A 192.503 192.503 0 0 1 17.2 17.6 Q 16.798 13.818 16.201 10.845 A 47.95 47.95 0 0 0 15.9 9.45 A 8.435 8.435 0 0 0 15.483 8.116 Q 14.601 6 12.8 6 A 5.387 5.387 0 0 0 9.418 7.202 A 7.718 7.718 0 0 0 8.5 8.05 A 21.278 21.278 0 0 0 6.857 10.073 Q 6.074 11.16 5.308 12.46 A 38.976 38.976 0 0 0 4.8 13.35 Q 3 16.6 0.9 20.3 Z" vector-effect="non-scaling-stroke"/></g></svg>