<svg width="46.2" height="100" viewBox="0 0 46.2 100" xmlns="http://www.w3.org/2000/svg"><g id="svgGroup" stroke-linecap="round" fill-rule="evenodd" font-size="9pt" stroke="#000" stroke-width="0.25mm" fill="#000" style="stroke:#000;stroke-width:0.25mm;fill:#000"><path d="M 39.9 55.8 L 41.4 56.8 A 27.517 27.517 0 0 1 39.522 60.535 Q 38.336 62.481 36.935 63.899 A 13.759 13.759 0 0 1 35.05 65.5 A 21.215 21.215 0 0 1 32.848 66.865 Q 30.427 68.153 28.444 68.199 A 6.306 6.306 0 0 1 28.3 68.2 A 8.027 8.027 0 0 1 26.11 67.883 A 10.633 10.633 0 0 1 24.55 67.3 A 14.994 14.994 0 0 1 20.953 64.947 A 16.695 16.695 0 0 1 20.9 64.9 Q 20.9 71.2 19.55 77.4 A 66.618 66.618 0 0 1 17.589 84.548 A 54.579 54.579 0 0 1 16 88.7 A 41.174 41.174 0 0 1 14.149 92.48 Q 12.714 95.047 11.1 96.9 A 12.208 12.208 0 0 1 9.49 98.459 Q 7.545 100 5.5 100 A 3.095 3.095 0 0 1 5.477 100 Q 4.485 99.993 3.2 99.35 Q 2.186 98.843 1.384 97.575 A 8.911 8.911 0 0 1 0.95 96.8 Q 0 94.9 0 91.2 A 33.879 33.879 0 0 1 0.146 88.191 Q 0.469 84.597 1.5 79.75 Q 3 72.7 5.6 64.2 Q 8.2 55.7 11.6 46.75 Q 15 37.8 18.95 29.45 A 164.317 164.317 0 0 1 23.457 20.594 A 128.362 128.362 0 0 1 27.05 14.45 A 77.473 77.473 0 0 1 30.141 9.849 Q 32.7 6.338 35.2 3.9 Q 37.605 1.555 39.866 0.62 A 7.645 7.645 0 0 1 42.8 0 A 5.232 5.232 0 0 1 43.759 0.081 Q 45.063 0.325 45.55 1.3 A 5.951 5.951 0 0 1 46.071 2.896 Q 46.198 3.588 46.2 4.375 A 9.899 9.899 0 0 1 46.2 4.4 Q 46.2 8.267 44.299 12.781 A 33.472 33.472 0 0 1 43.85 13.8 A 51.415 51.415 0 0 1 40.307 20.195 A 63.654 63.654 0 0 1 37.6 24.05 Q 33.7 29.2 29 33.85 Q 24.3 38.5 19.5 41.8 Q 19 43 18.55 44.25 Q 18.1 45.5 17.6 46.8 A 2.612 2.612 0 0 1 19.328 47.919 A 3.307 3.307 0 0 1 19.35 47.95 Q 20 48.9 20.1 50 A 145.621 145.621 0 0 0 20.802 54.137 Q 21.188 56.22 21.6 58.05 A 18.584 18.584 0 0 0 22.285 60.402 Q 22.993 62.319 24.05 63.6 A 5.344 5.344 0 0 0 27.255 65.459 A 8.04 8.04 0 0 0 28.8 65.6 A 7.761 7.761 0 0 0 34.511 63.245 A 9.45 9.45 0 0 0 34.7 63.05 A 26.968 26.968 0 0 0 36.397 61.043 Q 37.23 59.964 38.106 58.653 A 65.38 65.38 0 0 0 39.9 55.8 Z M 8.1 95.2 A 1.565 1.565 0 0 0 8.845 94.99 Q 9.414 94.682 10.051 93.922 A 10.505 10.505 0 0 0 10.6 93.2 A 19.692 19.692 0 0 0 11.643 91.524 Q 12.156 90.608 12.661 89.52 A 41.575 41.575 0 0 0 13.35 87.95 A 58.869 58.869 0 0 0 14.921 83.691 A 72.72 72.72 0 0 0 15.8 80.8 Q 16.9 76.9 17.6 73 A 49.167 49.167 0 0 0 18.079 69.741 Q 18.258 68.118 18.292 66.663 A 28.598 28.598 0 0 0 18.3 66 A 20.827 20.827 0 0 0 18.05 62.708 A 16.666 16.666 0 0 0 17.5 60.35 Q 16.903 58.448 15.75 56.016 A 59.885 59.885 0 0 0 14.9 54.3 A 360.834 360.834 0 0 0 11.431 65.269 A 318.62 318.62 0 0 0 10.4 68.8 Q 8.681 74.816 7.627 79.797 A 112.41 112.41 0 0 0 7.3 81.4 A 81.23 81.23 0 0 0 6.72 84.685 Q 6.235 87.838 6.202 90.085 A 21.964 21.964 0 0 0 6.2 90.4 A 18.528 18.528 0 0 0 6.256 91.908 Q 6.456 94.345 7.371 94.978 A 1.251 1.251 0 0 0 8.1 95.2 Z M 21.1 37.7 A 112.752 112.752 0 0 0 28.202 30.558 A 91.4 91.4 0 0 0 32.35 25.65 A 111.608 111.608 0 0 0 35.61 21.295 Q 38.075 17.819 39.7 14.85 A 48.462 48.462 0 0 0 40.713 12.904 Q 42.161 9.947 42.288 8.387 A 3.542 3.542 0 0 0 42.3 8.1 A 2.015 2.015 0 0 0 42.231 7.546 Q 42.053 6.925 41.418 6.76 A 2.063 2.063 0 0 0 40.9 6.7 A 4.06 4.06 0 0 0 39.074 7.18 Q 37.191 8.128 35 10.95 Q 32.538 14.121 29.909 18.823 A 110.073 110.073 0 0 0 28.1 22.2 Q 24.5 29.2 21.1 37.7 Z" vector-effect="non-scaling-stroke"/></g></svg>