<svg width="32.1" height="64.3" viewBox="0 0 32.1 64.3" xmlns="http://www.w3.org/2000/svg"><g id="svgGroup" stroke-linecap="round" fill-rule="evenodd" font-size="9pt" stroke="#000" stroke-width="0.25mm" fill="#000" style="stroke:#000;stroke-width:0.25mm;fill:#000"><path d="M 2.2 29.5 L 2.2 27.7 Q 3 27.8 4.1 27.9 Q 5.127 27.993 6.415 28.087 A 180.465 180.465 0 0 0 6.6 28.1 Q 8.7 22.7 11.1 17.65 Q 13.5 12.6 15.85 8.65 Q 17.626 5.664 19.288 3.593 A 25.255 25.255 0 0 1 20.35 2.35 A 14.304 14.304 0 0 1 21.322 1.378 Q 22.852 0 24 0 A 2.174 2.174 0 0 1 25.389 0.5 A 2.751 2.751 0 0 1 25.45 0.55 A 1.752 1.752 0 0 1 26.008 1.451 Q 26.1 1.787 26.1 2.2 A 4.378 4.378 0 0 1 25.969 3.184 Q 25.613 4.7 24.294 7.203 A 43.938 43.938 0 0 1 24 7.75 Q 22.556 10.397 20.64 13.729 A 501.112 501.112 0 0 1 18.8 16.9 A 134.642 134.642 0 0 0 14.632 24.613 A 158.425 158.425 0 0 0 12.8 28.4 L 14.65 28.4 L 16.5 28.4 Q 19.8 28.4 23.45 28.3 Q 27.1 28.2 30.8 27.8 L 30.8 29.6 A 302.508 302.508 0 0 1 25.896 30.097 Q 23.59 30.31 21.533 30.459 A 177.381 177.381 0 0 1 20.95 30.5 Q 16.6 30.8 13.2 30.8 L 12.45 30.8 L 11.7 30.8 Q 9.4 36.1 7.8 41.7 A 41.313 41.313 0 0 0 6.341 49.427 A 36.128 36.128 0 0 0 6.2 52.6 A 22.505 22.505 0 0 0 6.292 54.712 Q 6.49 56.809 7.118 58.097 A 4.765 4.765 0 0 0 7.5 58.75 Q 8.8 60.6 11.8 60.6 A 12.647 12.647 0 0 0 17.587 59.145 Q 19.395 58.225 21.178 56.724 A 24.857 24.857 0 0 0 22 56 A 33.464 33.464 0 0 0 26.562 50.77 Q 28.841 47.573 30.8 43.5 L 32.1 44.5 Q 29.7 50.1 26.05 54.6 A 32.78 32.78 0 0 1 21.515 59.221 A 27.222 27.222 0 0 1 18 61.7 A 18.697 18.697 0 0 1 12.562 63.895 A 16.71 16.71 0 0 1 8.9 64.3 A 11.866 11.866 0 0 1 6.294 64.031 Q 3.845 63.48 2.3 61.8 A 7.904 7.904 0 0 1 0.649 58.929 Q 0 57.003 0 54.4 Q 0 51.218 0.863 46.964 A 69.769 69.769 0 0 1 1.65 43.55 Q 3.3 37.1 5.8 30.3 Q 4.8 30.1 3.9 29.95 Q 3 29.8 2.2 29.5 Z" vector-effect="non-scaling-stroke"/></g></svg>