<svg width="41.7" height="63.302" viewBox="0 0 41.7 63.302" xmlns="http://www.w3.org/2000/svg"><g id="svgGroup" stroke-linecap="round" fill-rule="evenodd" font-size="9pt" stroke="#000" stroke-width="0.25mm" fill="#000" style="stroke:#000;stroke-width:0.25mm;fill:#000"><path d="M 9.4 21.901 L 8.2 20.901 Q 10.4 14.901 12.75 10.201 A 28.631 28.631 0 0 1 14.969 6.462 Q 16.403 4.436 18.073 2.95 A 17.656 17.656 0 0 1 18.3 2.751 A 11.331 11.331 0 0 1 25.572 0.008 A 14.429 14.429 0 0 1 26 0.001 Q 29.4 0.001 31.85 2.201 Q 34.3 4.401 34.3 8.201 Q 34.3 11.801 32.6 14.901 Q 30.9 18.001 28.2 20.351 A 27.549 27.549 0 0 1 23.257 23.807 A 25.328 25.328 0 0 1 22.5 24.201 A 26.368 26.368 0 0 1 25.156 26.531 A 21.357 21.357 0 0 1 26.85 28.451 A 17.561 17.561 0 0 1 29.128 32.263 A 16.083 16.083 0 0 1 29.5 33.201 Q 33.3 30.301 36.25 26.851 Q 39.2 23.401 40.6 19.101 L 41.7 20.301 Q 40.3 24.801 37.2 28.451 Q 34.1 32.101 30.1 35.101 Q 30.3 35.801 30.4 36.701 A 16.544 16.544 0 0 1 30.486 37.787 A 13.732 13.732 0 0 1 30.5 38.401 A 21.251 21.251 0 0 1 29.023 46.099 A 24.983 24.983 0 0 1 28.5 47.351 Q 26.5 51.801 23.1 55.401 Q 19.7 59.001 15.45 61.151 Q 11.2 63.301 6.6 63.301 A 13.606 13.606 0 0 1 4.794 63.189 Q 3.845 63.062 3.065 62.79 A 5.952 5.952 0 0 1 1.75 62.151 Q 0.145 61.097 0.012 58.654 A 8.328 8.328 0 0 1 0 58.201 A 9.278 9.278 0 0 1 1.676 52.902 A 11.793 11.793 0 0 1 2.15 52.251 Q 4.3 49.501 7.9 47.001 A 113.573 113.573 0 0 1 12.629 43.896 A 139.999 139.999 0 0 1 15.85 41.951 Q 20.2 39.401 24.5 36.501 Q 24.5 32.901 23 29.901 A 13.306 13.306 0 0 0 21.462 27.542 Q 20.626 26.501 19.509 25.447 A 29.956 29.956 0 0 0 17.6 23.801 Q 21.1 22.801 23.55 20.301 A 17.452 17.452 0 0 0 26.83 15.691 A 16.44 16.44 0 0 0 27.25 14.751 A 18.53 18.53 0 0 0 28.099 12.191 Q 28.45 10.776 28.494 9.472 A 11.021 11.021 0 0 0 28.5 9.101 Q 28.5 7.161 27.824 5.79 A 5.264 5.264 0 0 0 27.55 5.301 A 3.089 3.089 0 0 0 25.313 3.854 A 4.626 4.626 0 0 0 24.6 3.801 A 8.116 8.116 0 0 0 19.277 5.785 A 10.775 10.775 0 0 0 18.7 6.301 A 21.524 21.524 0 0 0 16.35 8.997 Q 15.069 10.723 13.9 12.901 Q 11.7 17.001 9.4 21.901 Z M 5.9 60.401 Q 7.7 60.401 10.6 58.951 Q 13.5 57.501 16.5 54.751 A 24.886 24.886 0 0 0 20.399 50.153 A 30.012 30.012 0 0 0 21.7 48.001 A 22.092 22.092 0 0 0 23.921 41.934 A 27.638 27.638 0 0 0 24.4 38.801 Q 20.4 41.301 16.55 43.551 A 118.971 118.971 0 0 0 12.456 46.051 A 92.51 92.51 0 0 0 9.6 47.951 A 30.24 30.24 0 0 0 7.137 49.843 Q 5.694 51.081 4.65 52.351 A 8.794 8.794 0 0 0 3.418 54.294 A 6.721 6.721 0 0 0 2.8 57.101 A 5.082 5.082 0 0 0 2.879 58.032 Q 2.975 58.543 3.185 58.94 A 2.342 2.342 0 0 0 3.7 59.601 A 3.149 3.149 0 0 0 5.694 60.396 A 4.075 4.075 0 0 0 5.9 60.401 Z" vector-effect="non-scaling-stroke"/></g></svg>