<svg width="36" height="39.401" viewBox="0 0 36 39.401" xmlns="http://www.w3.org/2000/svg"><g id="svgGroup" stroke-linecap="round" fill-rule="evenodd" font-size="9pt" stroke="#000" stroke-width="0.25mm" fill="#000" style="stroke:#000;stroke-width:0.25mm;fill:#000"><path d="M 34.7 17.5 L 36 18.5 Q 33.7 24.5 29.7 29.25 A 34.743 34.743 0 0 1 24.668 34.168 A 29.113 29.113 0 0 1 20.9 36.7 A 21.555 21.555 0 0 1 15.772 38.807 A 18.049 18.049 0 0 1 11.2 39.4 A 11.828 11.828 0 0 1 6.988 38.674 A 10.63 10.63 0 0 1 3.2 36.2 Q 0 33 0 26.6 Q 0 21.6 1.95 16.85 Q 3.9 12.1 7.1 8.3 Q 10.3 4.5 14.2 2.25 A 17.947 17.947 0 0 1 17.774 0.654 A 13.684 13.684 0 0 1 21.9 0 A 10.879 10.879 0 0 1 23.895 0.17 Q 24.971 0.371 25.788 0.811 A 4.488 4.488 0 0 1 27.5 2.4 A 9.902 9.902 0 0 1 28.743 5.281 A 8.812 8.812 0 0 1 29 7.4 A 10.548 10.548 0 0 1 28.63 10.244 A 8.822 8.822 0 0 1 27.65 12.5 A 5.329 5.329 0 0 1 26.662 13.707 A 3.87 3.87 0 0 1 24 14.7 Q 22.3 14.7 21.1 13.2 A 4.276 4.276 0 0 0 22.211 12.324 Q 22.644 11.858 23.036 11.22 A 11.146 11.146 0 0 0 23.7 9.95 Q 24.8 7.5 24.8 5.3 A 5.151 5.151 0 0 0 24.756 4.604 Q 24.708 4.251 24.606 3.962 A 2.145 2.145 0 0 0 24.35 3.45 A 1.299 1.299 0 0 0 23.794 3.006 Q 23.353 2.81 22.668 2.801 A 5.066 5.066 0 0 0 22.6 2.8 Q 20.323 2.8 17.939 4.508 A 14.383 14.383 0 0 0 17.05 5.2 A 24.106 24.106 0 0 0 14.052 8.244 A 32.383 32.383 0 0 0 11.75 11.4 Q 9.3 15.2 7.75 19.4 A 26.692 26.692 0 0 0 6.612 23.352 A 19.936 19.936 0 0 0 6.2 27.3 Q 6.2 30.4 7.7 33 Q 8.978 35.216 12.291 35.544 A 12.309 12.309 0 0 0 13.5 35.6 A 15.645 15.645 0 0 0 19.024 34.56 A 20.019 20.019 0 0 0 21.55 33.4 A 24.603 24.603 0 0 0 26.398 29.908 A 31.526 31.526 0 0 0 29.1 27.1 A 31.641 31.641 0 0 0 33.863 19.514 A 36.947 36.947 0 0 0 34.7 17.5 Z" vector-effect="non-scaling-stroke"/></g></svg>