<svg width="56.1" height="75" viewBox="0 0 56.1 75" xmlns="http://www.w3.org/2000/svg"><g id="svgGroup" stroke-linecap="round" fill-rule="evenodd" font-size="9pt" stroke="#000" stroke-width="0.25mm" fill="#000" style="stroke:#000;stroke-width:0.25mm;fill:#000"><path d="M 50.8 55.8 L 52 56.7 Q 50.1 61.8 46.8 65.85 A 33.02 33.02 0 0 1 43.222 69.624 A 25.676 25.676 0 0 1 39.75 72.25 A 17.904 17.904 0 0 1 36.987 73.682 Q 34.725 74.6 32.6 74.6 A 8.692 8.692 0 0 1 30.697 74.406 Q 29.526 74.143 28.682 73.523 A 4.574 4.574 0 0 1 27.45 72.15 A 10.455 10.455 0 0 1 26.249 69.227 A 9.21 9.21 0 0 1 26 67.1 A 15.445 15.445 0 0 1 26.049 65.93 Q 26.149 64.618 26.455 62.853 A 52.643 52.643 0 0 1 26.5 62.6 Q 27 59.8 27.9 56.4 A 77.331 77.331 0 0 1 23.311 63.191 A 66.067 66.067 0 0 1 21.1 65.95 Q 18.068 69.53 15.142 71.797 A 26.353 26.353 0 0 1 14.05 72.6 A 16.321 16.321 0 0 1 11.719 73.966 Q 10.354 74.612 9.047 74.855 A 8.474 8.474 0 0 1 7.5 75 A 7.361 7.361 0 0 1 5.139 74.598 A 9.263 9.263 0 0 1 4.05 74.15 A 6.565 6.565 0 0 1 1.783 72.31 A 8.468 8.468 0 0 1 1.15 71.4 Q 0.126 69.708 0.014 67.222 A 13.825 13.825 0 0 1 0 66.6 A 16.265 16.265 0 0 1 0.329 63.445 Q 0.626 61.943 1.192 60.306 A 30.352 30.352 0 0 1 1.6 59.2 A 41.09 41.09 0 0 1 4.6 53.11 A 48.097 48.097 0 0 1 5.9 51.05 Q 8.6 47 12.1 43.55 A 35.024 35.024 0 0 1 16.362 39.947 A 28.885 28.885 0 0 1 19.4 38.05 A 17.989 17.989 0 0 1 23.058 36.545 A 14.115 14.115 0 0 1 26.9 36 Q 29 36 30.15 36.75 A 2.452 2.452 0 0 1 31.258 38.519 A 3.84 3.84 0 0 1 31.3 39.1 A 5.414 5.414 0 0 1 31.291 39.429 Q 31.281 39.58 31.263 39.713 A 2.995 2.995 0 0 1 31.25 39.8 Q 31.2 40.1 31.1 40.5 A 2.757 2.757 0 0 0 29.781 39.401 A 3.453 3.453 0 0 0 29.65 39.35 Q 28.876 39.065 27.803 39.012 A 10.238 10.238 0 0 0 27.3 39 Q 24.1 39 21.05 40.95 A 22.456 22.456 0 0 0 16.924 44.373 A 26.99 26.99 0 0 0 15.45 46.05 Q 12.9 49.2 11 52.8 A 45.934 45.934 0 0 0 9.131 56.771 A 36.774 36.774 0 0 0 8.05 59.75 A 29.379 29.379 0 0 0 7.452 61.929 Q 7 63.891 7 65.4 A 7.868 7.868 0 0 0 7.118 66.806 Q 7.344 68.047 8 68.9 Q 8.996 70.194 10.586 70.2 A 3.928 3.928 0 0 0 10.6 70.2 A 5.577 5.577 0 0 0 12.496 69.834 Q 14.563 69.084 17.15 66.8 A 32.998 32.998 0 0 0 20.181 63.717 Q 22.563 60.978 25 57.2 A 69.921 69.921 0 0 0 29.136 49.791 A 92.7 92.7 0 0 0 32.2 42.7 Q 34.4 36.9 36.75 30.9 A 362.956 362.956 0 0 1 40.901 20.745 A 329.715 329.715 0 0 1 41.5 19.35 Q 43.9 13.8 46.15 9.45 Q 47.769 6.319 49.285 4.121 A 26.687 26.687 0 0 1 50.45 2.55 A 13.346 13.346 0 0 1 51.386 1.495 Q 52.875 0 54.1 0 A 1.801 1.801 0 0 1 55.347 0.498 A 2.481 2.481 0 0 1 55.5 0.65 A 2.24 2.24 0 0 1 56.078 1.934 A 3.03 3.03 0 0 1 56.1 2.3 Q 56.1 3.784 54.681 7.204 A 51.833 51.833 0 0 1 54.45 7.75 Q 53.316 10.397 51.709 13.753 A 267.949 267.949 0 0 1 50.15 16.95 Q 47.5 22.3 44.6 28.6 Q 41.7 34.9 39.05 41.4 A 117.204 117.204 0 0 0 36.128 49.349 A 98.956 98.956 0 0 0 34.75 53.95 A 51.358 51.358 0 0 0 33.622 59.043 Q 33.165 61.794 33.108 64.292 A 30.986 30.986 0 0 0 33.1 65 A 41.959 41.959 0 0 0 33.124 66.464 Q 33.17 67.788 33.307 68.689 A 8.73 8.73 0 0 0 33.4 69.2 Q 33.7 70.6 35.4 70.6 Q 36.875 70.6 38.694 69.713 A 15.765 15.765 0 0 0 40.3 68.8 Q 42.821 67.179 45.342 64.343 A 37.102 37.102 0 0 0 45.9 63.7 A 30.908 30.908 0 0 0 49.053 59.195 A 39.266 39.266 0 0 0 50.8 55.8 Z" vector-effect="non-scaling-stroke"/></g></svg>