<svg width="53.4" height="31.201" viewBox="0 0 53.4 31.201" xmlns="http://www.w3.org/2000/svg"><g id="svgGroup" stroke-linecap="round" fill-rule="evenodd" font-size="9pt" stroke="#000" stroke-width="0.25mm" fill="#000" style="stroke:#000;stroke-width:0.25mm;fill:#000"><path d="M 52.3 13 L 53.4 14.3 A 56.018 56.018 0 0 1 50.879 19.465 A 44.946 44.946 0 0 1 48.7 23 A 27.462 27.462 0 0 1 46.064 26.306 A 20.479 20.479 0 0 1 43 29 Q 39.9 31.2 36.1 31.2 Q 33.706 31.2 32.131 30.358 A 5.175 5.175 0 0 1 30.85 29.4 A 6.116 6.116 0 0 1 29.143 25.651 A 8.266 8.266 0 0 1 29.1 24.8 Q 29.1 22.7 29.85 20.4 Q 30.6 18.1 31.3 15.65 A 18.17 18.17 0 0 0 31.925 12.426 A 15.671 15.671 0 0 0 32 10.9 Q 32 8.1 30.85 7.05 A 3.986 3.986 0 0 0 28.365 6.013 A 5.228 5.228 0 0 0 28 6 A 8.365 8.365 0 0 0 24.678 6.72 Q 23.523 7.216 22.355 8.054 A 16.284 16.284 0 0 0 21.7 8.55 A 31.759 31.759 0 0 0 18.356 11.655 A 42.501 42.501 0 0 0 15.5 15.05 Q 12.5 19 9.9 23.2 A 1155.207 1155.207 0 0 0 7.74 26.703 Q 6.754 28.309 5.874 29.755 A 676.735 676.735 0 0 0 5.3 30.7 Q 3.7 30.7 2.25 30.15 A 5.431 5.431 0 0 1 0.998 29.489 A 4.401 4.401 0 0 1 0 28.5 A 1.302 1.302 0 0 1 0.037 28.239 Q 0.197 27.513 1.05 25.4 A 159.879 159.879 0 0 0 1.887 23.282 Q 2.256 22.329 2.659 21.258 A 327.122 327.122 0 0 0 3.5 19 Q 4.9 15.2 6 11.2 A 33.742 33.742 0 0 0 6.752 7.834 Q 7.056 6.016 7.095 4.368 A 20.252 20.252 0 0 0 7.1 3.9 A 4.136 4.136 0 0 1 7.595 3.419 Q 8.143 2.963 8.987 2.508 A 13.096 13.096 0 0 1 9 2.5 A 5.691 5.691 0 0 1 11.222 1.821 A 5.515 5.515 0 0 1 11.7 1.8 A 4.051 4.051 0 0 1 12.752 1.925 Q 14.12 2.294 14.352 3.755 A 4.109 4.109 0 0 1 14.4 4.4 Q 14.4 5.974 13.53 9.626 A 78.551 78.551 0 0 1 13.5 9.75 A 82.123 82.123 0 0 1 12.18 14.575 A 97.759 97.759 0 0 1 11.2 17.6 A 92.214 92.214 0 0 1 16.423 10.464 A 102.333 102.333 0 0 1 17.25 9.45 A 40.271 40.271 0 0 1 21.613 4.915 A 33.722 33.722 0 0 1 24.4 2.7 A 16.272 16.272 0 0 1 27.48 0.955 A 11.532 11.532 0 0 1 32 0 A 8.504 8.504 0 0 1 34.228 0.274 A 5.632 5.632 0 0 1 37.65 2.8 Q 39.4 5.6 39.4 9 A 16.878 16.878 0 0 1 38.927 13.05 A 14.919 14.919 0 0 1 38.4 14.75 A 126.279 126.279 0 0 1 36.612 19.235 A 115.236 115.236 0 0 1 36.35 19.85 A 12.703 12.703 0 0 0 35.343 23.787 A 11.87 11.87 0 0 0 35.3 24.8 Q 35.3 26.608 35.93 27.49 A 2.069 2.069 0 0 0 36.15 27.75 A 2.871 2.871 0 0 0 38.097 28.595 A 3.82 3.82 0 0 0 38.3 28.6 A 5.866 5.866 0 0 0 40.878 27.976 Q 41.711 27.572 42.543 26.908 A 12.367 12.367 0 0 0 43.3 26.25 Q 45.722 23.974 48.003 20.524 A 45.221 45.221 0 0 0 48.15 20.3 Q 50.5 16.7 52.3 13 Z" vector-effect="non-scaling-stroke"/></g></svg>