<svg width="44.7" height="63.7" viewBox="0 0 44.7 63.7" xmlns="http://www.w3.org/2000/svg"><g id="svgGroup" stroke-linecap="round" fill-rule="evenodd" font-size="9pt" stroke="#000" stroke-width="0.25mm" fill="#000" style="stroke:#000;stroke-width:0.25mm;fill:#000"><path d="M 43.5 19.6 L 44.7 20.7 A 33.261 33.261 0 0 1 42.224 25.405 Q 40.664 27.84 38.824 29.57 A 16.513 16.513 0 0 1 36.35 31.5 A 28.523 28.523 0 0 1 32.151 33.72 Q 29.671 34.762 27.281 35.114 A 17.132 17.132 0 0 1 26.6 35.2 Q 27.4 37.8 27.85 40.6 A 36.09 36.09 0 0 1 28.278 45.158 A 41.387 41.387 0 0 1 28.3 46.5 A 40.451 40.451 0 0 1 28.008 51.468 A 31.905 31.905 0 0 1 27.35 55.1 A 24.377 24.377 0 0 1 26.532 57.807 Q 26.03 59.16 25.403 60.256 A 12.207 12.207 0 0 1 24.7 61.35 Q 23.62 62.842 22.38 63.387 A 3.644 3.644 0 0 1 20.9 63.7 A 2.549 2.549 0 0 1 19.254 63.088 Q 18.829 62.742 18.45 62.2 A 4.044 4.044 0 0 1 17.954 61.171 Q 17.582 60.065 17.46 58.291 A 27.64 27.64 0 0 1 17.4 56.4 Q 17.4 53.869 17.792 50.449 A 95.56 95.56 0 0 1 18.15 47.7 A 132.288 132.288 0 0 1 19.302 40.985 A 157.156 157.156 0 0 1 20.2 36.75 A 99.776 99.776 0 0 1 22.431 28.491 A 87.747 87.747 0 0 1 23.3 25.9 A 64.424 64.424 0 0 1 19.79 30.476 Q 17.528 33.153 15.25 35.15 A 19.017 19.017 0 0 1 12.784 37.003 Q 11.378 37.878 10.018 38.302 A 8.435 8.435 0 0 1 7.5 38.7 A 7.361 7.361 0 0 1 5.139 38.298 A 9.263 9.263 0 0 1 4.05 37.85 A 6.565 6.565 0 0 1 1.783 36.01 A 8.468 8.468 0 0 1 1.15 35.1 A 7.284 7.284 0 0 1 0.344 33.132 Q 0 31.796 0 30.1 A 17.707 17.707 0 0 1 0.452 26.226 Q 0.838 24.504 1.553 22.669 A 29.339 29.339 0 0 1 1.6 22.55 A 37.119 37.119 0 0 1 4.367 17.005 A 44.339 44.339 0 0 1 6 14.5 Q 8.8 10.5 12.4 7.25 Q 16 4 20 2 A 19.263 19.263 0 0 1 24.5 0.383 A 16.335 16.335 0 0 1 28 0 A 13.618 13.618 0 0 1 30.481 0.214 Q 31.935 0.483 33.109 1.093 A 7.963 7.963 0 0 1 33.65 1.4 Q 35.9 2.8 35.9 4.9 Q 35.9 5.8 35.45 6.75 Q 35 7.7 34.1 8.2 A 1.588 1.588 0 0 1 33.611 8.459 Q 33.389 8.534 33.118 8.569 A 4.048 4.048 0 0 1 32.6 8.6 Q 32.6 6.4 31.3 4.75 Q 30.254 3.422 28.042 3.163 A 9.822 9.822 0 0 0 26.9 3.1 A 11.169 11.169 0 0 0 21.355 4.593 A 13.664 13.664 0 0 0 20.6 5.05 A 22.654 22.654 0 0 0 16.108 8.923 A 26.403 26.403 0 0 0 15.15 10.05 Q 12.7 13.1 10.85 16.65 A 44.139 44.139 0 0 0 9.038 20.565 A 35.27 35.27 0 0 0 8 23.5 A 29.443 29.443 0 0 0 7.431 25.651 Q 7.195 26.712 7.088 27.644 A 12.835 12.835 0 0 0 7 29.1 A 8.271 8.271 0 0 0 7.112 30.506 Q 7.327 31.747 7.95 32.6 Q 8.867 33.855 10.388 33.899 A 3.856 3.856 0 0 0 10.5 33.9 A 4.96 4.96 0 0 0 12.306 33.537 Q 13.016 33.26 13.759 32.773 A 11.822 11.822 0 0 0 14.8 32 A 26.001 26.001 0 0 0 16.841 30.108 Q 17.839 29.085 18.864 27.848 A 47.153 47.153 0 0 0 19.55 27 Q 22 23.9 24.45 20.15 Q 26.9 16.4 29.2 12.7 Q 29.704 11.909 30.182 11.376 A 5.601 5.601 0 0 1 30.55 11 A 7.728 7.728 0 0 1 31.51 10.241 A 6.757 6.757 0 0 1 31.9 10 Q 32.817 9.584 33.56 9.584 A 2.483 2.483 0 0 1 33.85 9.6 A 3.348 3.348 0 0 1 34.326 9.689 Q 34.566 9.753 34.755 9.852 A 1.393 1.393 0 0 1 35.1 10.1 A 1.684 1.684 0 0 1 35.582 11.111 A 2.314 2.314 0 0 1 35.6 11.4 A 4.315 4.315 0 0 1 35.447 12.477 Q 35.097 13.823 33.95 15.7 A 61.736 61.736 0 0 0 32.656 17.929 Q 32.094 18.943 31.492 20.098 A 129.553 129.553 0 0 0 30.25 22.55 Q 28.529 26.035 27.266 30.894 A 68.418 68.418 0 0 0 26.8 32.8 A 17.51 17.51 0 0 0 32.175 31.382 A 23.04 23.04 0 0 0 35.4 29.65 A 16.173 16.173 0 0 0 38.49 27.017 Q 41.095 24.22 43.5 19.6 Z M 23.6 58.2 A 0.767 0.767 0 0 0 24.129 57.968 Q 24.592 57.536 24.95 56.3 A 18.931 18.931 0 0 0 25.32 54.763 Q 25.483 53.95 25.615 53.003 A 42.797 42.797 0 0 0 25.8 51.45 Q 26.1 48.5 26.1 45.6 Q 26.1 43.6 25.95 41.75 Q 25.8 39.9 25.4 38.1 A 110.503 110.503 0 0 0 24.143 43.857 A 88.138 88.138 0 0 0 23.45 48.05 Q 22.847 52.363 22.803 54.998 A 24.238 24.238 0 0 0 22.8 55.4 A 13.765 13.765 0 0 0 22.82 56.159 Q 22.86 56.883 22.982 57.381 A 3.753 3.753 0 0 0 23 57.45 Q 23.2 58.2 23.6 58.2 Z" vector-effect="non-scaling-stroke"/></g></svg>