<svg width="42.9" height="37.101" viewBox="0 0 42.9 37.101" xmlns="http://www.w3.org/2000/svg"><g id="svgGroup" stroke-linecap="round" fill-rule="evenodd" font-size="9pt" stroke="#000" stroke-width="0.25mm" fill="#000" style="stroke:#000;stroke-width:0.25mm;fill:#000"><path d="M 41.6 17.4 L 42.9 18.4 A 27.374 27.374 0 0 1 41.627 20.952 Q 40.176 23.491 38.55 24.747 A 7.012 7.012 0 0 1 38.05 25.1 Q 35.84 26.518 33.804 26.753 A 6.995 6.995 0 0 1 33 26.8 A 7.426 7.426 0 0 1 29.804 26.123 A 7.365 7.365 0 0 1 27.5 24.4 Q 25.872 22.624 25.065 19.477 A 22.265 22.265 0 0 1 24.6 17.1 Q 22.2 22 18.95 26.55 Q 15.7 31.1 12.2 34.1 A 16.356 16.356 0 0 1 10.042 35.682 Q 7.7 37.1 5.5 37.1 A 4.822 4.822 0 0 1 3.632 36.756 Q 2.418 36.251 1.667 35.005 A 6.333 6.333 0 0 1 1.2 34.05 Q 0 31 0 26.1 A 4.87 4.87 0 0 1 0.002 26.007 Q 0.013 25.531 0.1 22.95 A 171.509 171.509 0 0 1 0.169 21.222 Q 0.3 18.25 0.6 13 Q 0.8 10.3 1.2 9.3 A 1.249 1.249 0 0 1 1.787 8.672 Q 2.28 8.399 3.133 8.327 A 7.888 7.888 0 0 1 3.8 8.3 A 6.928 6.928 0 0 1 4.484 8.331 Q 5.182 8.401 5.581 8.626 A 1.09 1.09 0 0 1 5.95 8.95 Q 6.4 9.6 6.4 11.5 A 58.523 58.523 0 0 1 6.337 14.137 Q 6.271 15.594 6.136 17.227 A 109.576 109.576 0 0 1 5.95 19.25 A 90.054 90.054 0 0 0 5.566 24.534 A 73.269 73.269 0 0 0 5.5 27.6 Q 5.5 30.5 6 31.85 A 2.584 2.584 0 0 0 6.343 32.501 Q 6.855 33.188 7.767 33.2 A 2.476 2.476 0 0 0 7.8 33.2 A 3.858 3.858 0 0 0 9.252 32.894 Q 10.451 32.407 11.8 31.15 A 25.112 25.112 0 0 0 13.709 29.148 Q 14.629 28.079 15.565 26.791 A 47.252 47.252 0 0 0 16.3 25.75 A 77.857 77.857 0 0 0 20.393 19.073 A 85.461 85.461 0 0 0 20.65 18.6 A 132.334 132.334 0 0 0 23.037 13.967 A 111.278 111.278 0 0 0 24.3 11.3 A 62.339 62.339 0 0 1 24.438 8.543 Q 24.748 4.359 25.603 2.539 A 4.784 4.784 0 0 1 25.75 2.25 Q 26.505 0.891 27.498 0.353 A 2.896 2.896 0 0 1 28.9 0 A 4.184 4.184 0 0 1 29.982 0.131 A 2.735 2.735 0 0 1 31.65 1.35 Q 32.241 2.289 32.421 3.107 A 3.222 3.222 0 0 1 32.5 3.8 Q 32.5 5.055 31.708 6.403 A 7.821 7.821 0 0 1 31.65 6.5 Q 30.8 7.9 29.9 10.3 Q 29.087 12.468 29.008 16.35 A 42.024 42.024 0 0 0 29 17.2 A 19.243 19.243 0 0 0 29.117 19.278 A 23.471 23.471 0 0 0 29.3 20.6 A 7.123 7.123 0 0 0 29.735 22.156 A 5.556 5.556 0 0 0 30.6 23.6 Q 31.495 24.674 33.269 24.787 A 6.768 6.768 0 0 0 33.7 24.8 A 5.593 5.593 0 0 0 36.392 24.09 A 8.016 8.016 0 0 0 37.75 23.15 A 9.145 9.145 0 0 0 38.964 21.88 Q 40.107 20.453 41.232 18.17 A 35.355 35.355 0 0 0 41.6 17.4 Z" vector-effect="non-scaling-stroke"/></g></svg>